<svg width="78" height="86" viewBox="0 0 78 86" fill="none" xmlns="http://www.w3.org/2000/svg">
<path d="M39.15 28.3661C38.05 27.7661 36.55 27.0661 35.35 27.0661C33.35 27.1661 30.35 28.8661 30.35 28.8661C30.35 28.8661 29.55 28.0661 25.85 30.4661C22.15 32.8661 18.55 33.7661 18.55 33.7661L15.45 35.1661C15.45 35.1661 10.25 34.6661 9.34997 34.0661C8.54997 33.3661 7.34997 30.5661 7.34997 30.1661C7.34997 29.7661 7.24997 27.4661 6.64997 25.8661C6.04997 24.2661 5.34997 22.9661 5.34997 22.9661C5.34997 22.9661 4.04997 19.5661 3.04997 16.6661C2.04997 13.7661 2.24997 5.16609 2.24997 5.16609V0.366089C2.24997 0.366089 1.04997 14.2661 1.24997 16.7661C1.44997 19.2661 1.04997 25.7661 1.24997 28.3661C1.44997 30.9661 1.84997 34.4661 1.14997 36.6661C0.449972 38.7661 1.74997 45.9661 1.74997 45.9661L3.04997 45.1661C3.04997 45.1661 2.44997 52.3661 3.34997 54.4661C4.14997 56.5661 5.44997 62.8661 7.64997 66.3661L7.94997 64.9661C7.94997 64.9661 9.94997 69.6661 10.85 70.5661C11.75 71.4661 18.55 78.1661 23.85 80.3661C29.15 82.4661 32.75 84.1661 32.75 84.1661L37.55 85.1661L39.05 85.6661L40.55 85.1661L45.35 84.1661C45.35 84.1661 48.95 82.4661 54.25 80.3661C59.55 78.2661 66.35 71.4661 67.25 70.5661C68.15 69.6661 70.15 64.9661 70.15 64.9661L70.45 66.3661C72.55 62.8661 73.85 56.5661 74.75 54.4661C75.55 52.3661 75.05 45.1661 75.05 45.1661L76.25 45.9661C76.25 45.9661 77.55 38.7661 76.85 36.6661C76.15 34.5661 76.55 30.9661 76.75 28.3661C76.95 25.7661 76.55 19.2661 76.75 16.7661C76.95 14.2661 75.75 0.366089 75.75 0.366089V5.16609C75.75 5.16609 75.95 13.7661 74.95 16.6661C73.95 19.5661 72.65 22.9661 72.65 22.9661C72.65 22.9661 71.95 24.2661 71.35 25.8661C70.75 27.4661 70.65 29.7661 70.65 30.1661C70.65 30.5661 69.55 33.4661 68.65 34.0661C67.85 34.7661 62.55 35.1661 62.55 35.1661L59.45 33.7661C59.45 33.7661 55.85 32.9661 52.15 30.4661C48.55 28.0661 47.65 28.8661 47.65 28.8661C47.65 28.8661 44.65 27.1661 42.65 27.0661C41.75 27.0661 40.25 27.7661 39.15 28.3661ZM39.15 41.2661C36.35 41.3661 31.85 41.1661 31.35 41.1661C30.65 41.1661 25.95 39.7661 25.95 39.7661C25.95 39.7661 28.15 38.8661 30.15 38.3661C32.15 37.8661 35.15 37.6661 35.45 37.5661C35.75 37.4661 38.15 37.5661 38.15 37.5661H39.15H40.15C40.15 37.5661 42.55 37.4661 42.85 37.5661C43.15 37.6661 46.25 37.9661 48.15 38.3661C50.15 38.8661 52.35 39.7661 52.35 39.7661C52.35 39.7661 47.55 41.1661 46.95 41.1661C46.45 41.1661 41.95 41.4661 39.15 41.2661Z" fill="#1E1B16"/>
</svg>
