<svg width="205" height="183" viewBox="0 0 205 183" fill="none" xmlns="http://www.w3.org/2000/svg">
<circle cx="115.553" cy="84.251" r="60" fill="#FDAD11"/>
<path fill-rule="evenodd" clip-rule="evenodd" d="M105.553 72.251C104.449 72.251 103.553 73.1464 103.553 74.251V94.251C103.553 95.3555 104.449 96.251 105.553 96.251H125.553C126.658 96.251 127.553 95.3555 127.553 94.251V74.251C127.553 73.1464 126.658 72.251 125.553 72.251H105.553ZM122.488 80.2662C122.842 79.8419 122.784 79.2113 122.36 78.8578C121.936 78.5042 121.305 78.5615 120.952 78.9858L113.944 87.3946L110.094 83.5439C109.703 83.1533 109.07 83.1533 108.679 83.5439C108.289 83.9344 108.289 84.5676 108.679 84.9581L113.304 89.5831L114.079 90.3574L114.78 89.5162L122.488 80.2662Z" fill="white"/>
<circle cx="4.03174" cy="20.731" r="3.52002" fill="#FDAD11"/>
<circle cx="185.033" cy="32.7651" r="3.52002" fill="#F2F2F2"/>
<circle cx="33.0554" cy="179.299" r="3.52002" fill="#E4E4E4"/>
<circle cx="183.074" cy="150.983" r="3.52002" fill="#FDAD11"/>
<circle cx="202.063" cy="63.9875" r="2.42603" fill="#FDAD11"/>
<circle cx="185.175" cy="1.77966" r="1.41956" fill="#FDAD11"/>
<circle cx="43.9498" cy="104.171" r="1.41956" fill="#FDAD11"/>
<circle cx="94.9181" cy="12.1444" r="1.41956" fill="#F2F2F2"/>
</svg>
