<svg width="85" height="120" viewBox="0 0 85 120" fill="none" xmlns="http://www.w3.org/2000/svg">
<g clip-path="url(#clip0_209_1375)">
<path d="M2.77393 45.1515C2.77393 48.6666 4.65621 52.9697 4.65621 52.9697L9.80772 39.2121L2.77393 37.2727C2.77393 37.2727 2.77393 41.6969 2.77393 45.1515Z" fill="#1E1B16"/>
<path d="M84.2075 35.8788C83.415 32 82.2261 28.9697 82.2261 28.9697C82.2261 28.9697 84.3066 27.3939 84.1084 25.1515C83.9103 22.9091 81.0373 22.7879 79.3532 20.4242C77.57 18.0606 73.7063 18.3636 73.7063 18.3636C73.211 17.0909 65.6819 15.2121 63.007 15.3333C60.3322 15.4545 59.9359 15.4545 57.7564 13.7576C55.4779 12.1212 48.1469 13.3939 42.401 11.6364C36.655 9.87879 38.7355 4 38.7355 4L35.8625 7.51515C37.3485 4.78788 33.9802 0.969697 33.9802 0.969697C35.5653 4.12121 32.4942 6.9697 32.4942 6.9697V4.66667C32.4942 8.06061 28.9278 9.15151 28.9278 9.15151L26.253 6.18182C26.253 6.18182 27.838 12.1818 22.5875 9.81818C17.3369 7.45455 20.507 2 20.507 2C18.922 3.09091 16.5443 6.18182 16.5443 6.18182C15.8509 1.81818 21.4977 0 21.4977 0C21.4977 0 14.7611 1.57576 9.80773 8.30303C5.05249 14.7273 11.7891 18.303 12.4826 18.6667C7.72732 16.4242 6.34037 12.303 6.34037 12.303C1.68419 21.2121 6.34037 30.0606 6.34037 30.0606C2.77393 27.5758 0.990718 21.0909 0.990718 21.0909C0.990718 21.0909 -1.28784 24.4848 0.990718 30.9091C3.26927 37.3333 16.049 38.1212 16.6434 38.0606C20.2098 37.9394 21.894 37.7576 21.894 37.7576C13.7704 35.6364 9.80773 26.5455 9.80773 26.5455C9.80773 26.5455 16.049 34 20.408 36.303C24.7669 38.5455 34.6737 38.6667 34.6737 38.6667C31.9989 37.2727 31.0082 33.3939 30.3147 30.1212C29.7203 26.8485 18.3275 17.2727 18.3275 17.2727C18.3275 17.2727 22.9837 20.9091 29.5222 26C36.0606 31.0909 31.6026 37.4545 37.3485 39.0303C43.0944 40.6061 50.0292 39.2121 50.0292 39.2121C56.8648 37.4545 56.5676 33.6364 55.7751 30.1818C54.9826 26.7273 40.2215 19.3939 40.2215 19.3939C40.2215 19.3939 45.9674 22 55.2798 26.6667C64.5921 31.3333 54.6854 38.8485 54.6854 38.8485C54.6854 38.8485 60.4313 36 67.366 36.1818C74.2017 36.3636 81.1364 30.1818 81.1364 30.1818C77.9662 35.0909 71.824 36.6061 71.824 36.6061C71.824 36.6061 73.7063 37.7576 78.2634 39.8182C82.7215 41.8788 83.2168 54 83.2168 54C83.2168 54 85.0991 46.0606 85.0991 45.2727C85 44.3636 85 39.8182 84.2075 35.8788Z" fill="#1E1B16"/>
</g>
<path d="M42.6486 84.1513C41.5588 83.7877 40.0728 83.3635 38.884 83.3635C36.9027 83.4241 33.9306 84.4544 33.9306 84.4544C33.9306 84.4544 33.1381 83.9695 29.4726 85.4241C25.8071 86.8786 22.2407 87.4241 22.2407 87.4241L19.1696 88.2725C19.1696 88.2725 14.0181 87.9695 13.1264 87.6059C12.3339 87.1816 11.1451 85.4847 11.1451 85.2422C11.1451 84.9998 11.046 83.6059 10.4516 82.6362C9.85721 81.6665 9.16374 80.8786 9.16374 80.8786C9.16374 80.8786 7.87586 78.818 6.88518 77.0604C5.89451 75.3029 6.09264 70.0907 6.09264 70.0907V67.1816C6.09264 67.1816 4.90383 75.6059 5.10197 77.121C5.3001 78.6362 4.90383 82.5756 5.10197 84.1513C5.3001 85.7271 5.69637 87.8483 5.0029 89.1816C4.30943 90.4544 5.59731 94.818 5.59731 94.818L6.88518 94.3332C6.88518 94.3332 6.29078 98.6968 7.18239 99.9695C7.97493 101.242 9.26281 105.06 11.4423 107.182L11.7395 106.333C11.7395 106.333 13.7208 109.182 14.6125 109.727C15.5041 110.273 22.2407 114.333 27.4912 115.666C32.7418 116.939 36.3083 117.97 36.3083 117.97L41.0635 118.576L42.5495 118.879L44.0355 118.576L48.7908 117.97C48.7908 117.97 52.3572 116.939 57.6078 115.666C62.8584 114.394 69.595 110.273 70.4866 109.727C71.3782 109.182 73.3595 106.333 73.3595 106.333L73.6567 107.182C75.7372 105.06 77.025 101.242 77.9166 99.9695C78.7092 98.6968 78.2139 94.3332 78.2139 94.3332L79.4027 94.818C79.4027 94.818 80.6905 90.4544 79.9971 89.1816C79.3036 87.9089 79.6999 85.7271 79.898 84.1513C80.0961 82.5756 79.6999 78.6362 79.898 77.121C80.0961 75.6059 78.9073 67.1816 78.9073 67.1816V70.0907C78.9073 70.0907 79.1055 75.3029 78.1148 77.0604C77.1241 78.818 75.8362 80.8786 75.8362 80.8786C75.8362 80.8786 75.1428 81.6665 74.5484 82.6362C73.9539 83.6059 73.8549 84.9998 73.8549 85.2422C73.8549 85.4847 72.7651 87.2422 71.8735 87.6059C71.081 88.0301 65.8304 88.2725 65.8304 88.2725L62.7593 87.4241C62.7593 87.4241 59.1929 86.9392 55.5274 85.4241C51.9609 83.9695 51.0693 84.4544 51.0693 84.4544C51.0693 84.4544 48.0973 83.4241 46.116 83.3635C45.2243 83.3635 43.7383 83.7877 42.6486 84.1513ZM42.6486 91.9695C39.8747 92.0301 35.4167 91.9089 34.9213 91.9089C34.2278 91.9089 29.5717 91.0604 29.5717 91.0604C29.5717 91.0604 31.7512 90.515 33.7325 90.2119C35.7139 89.9089 38.6859 89.7877 38.9831 89.7271C39.2803 89.6665 41.6579 89.7271 41.6579 89.7271H42.6486H43.6393C43.6393 89.7271 46.0169 89.6665 46.3141 89.7271C46.6113 89.7877 49.6824 89.9695 51.5647 90.2119C53.546 90.515 55.7255 91.0604 55.7255 91.0604C55.7255 91.0604 50.9703 91.9089 50.3759 91.9089C49.8805 91.9089 45.4225 92.0907 42.6486 91.9695Z" fill="#1E1B16"/>
<defs>
<clipPath id="clip0_209_1375">
<rect width="85" height="53.9394" fill="white"/>
</clipPath>
</defs>
</svg>
