<svg width="86" height="167" viewBox="0 0 86 167" fill="none" xmlns="http://www.w3.org/2000/svg">
<g clip-path="url(#clip0_487_3022)">
<path d="M2.77393 62.461C2.77393 67.3237 4.65621 73.2764 4.65621 73.2764L9.80772 54.2447L2.77393 51.5618C2.77393 51.5618 2.77393 57.6821 2.77393 62.461Z" fill="#D07D00"/>
<path d="M84.2075 49.6334C83.415 44.2676 82.2261 40.0756 82.2261 40.0756C82.2261 40.0756 84.3066 37.8958 84.1084 34.7937C83.9103 31.6916 81.0373 31.5239 79.3532 28.2542C77.57 24.9844 73.7063 25.4036 73.7063 25.4036C73.211 23.6429 65.6819 21.0439 63.007 21.2116C60.3322 21.3793 59.9359 21.3793 57.7564 19.0317C55.4779 16.768 48.1469 18.5287 42.401 16.0973C36.655 13.666 38.7355 5.53346 38.7355 5.53346L35.8625 10.3962C37.3485 6.62338 33.9802 1.34144 33.9802 1.34144C35.5653 5.70114 32.4942 9.64163 32.4942 9.64163V6.4557C32.4942 11.1508 28.9278 12.6599 28.9278 12.6599L26.253 8.5517C26.253 8.5517 27.838 16.8519 22.5875 13.5821C17.3369 10.3123 20.507 2.76673 20.507 2.76673C18.922 4.27585 16.5443 8.5517 16.5443 8.5517C15.8509 2.51521 21.4977 0 21.4977 0C21.4977 0 14.7611 2.17985 9.80773 11.4861C5.05249 20.3732 11.7891 25.3197 12.4826 25.8228C7.72731 22.7207 6.34037 17.0196 6.34037 17.0196C1.68419 29.3441 6.34037 41.5848 6.34037 41.5848C2.77394 38.1473 0.990718 29.1764 0.990718 29.1764C0.990718 29.1764 -1.28784 33.8715 0.990718 42.7585C3.26927 51.6456 16.049 52.7355 16.6434 52.6517C20.2098 52.484 21.894 52.2325 21.894 52.2325C13.7704 49.2981 9.80773 36.722 9.80773 36.722C9.80773 36.722 16.049 47.0344 20.408 50.2203C24.7669 53.3224 34.6737 53.4901 34.6737 53.4901C31.9989 51.5617 31.0082 46.196 30.3147 41.6686C29.7203 37.1412 18.3275 23.8945 18.3275 23.8945C18.3275 23.8945 22.9837 28.9249 29.5222 35.9675C36.0606 43.01 31.6026 51.8133 37.3485 53.9931C43.0944 56.173 50.0292 54.2446 50.0292 54.2446C56.8648 51.8133 56.5676 46.5313 55.7751 41.7524C54.9826 36.9735 40.2215 26.8289 40.2215 26.8289C40.2215 26.8289 45.9674 30.434 55.2798 36.8897C64.5921 43.3454 54.6854 53.7416 54.6854 53.7416C54.6854 53.7416 60.4313 49.8011 67.366 50.0526C74.2017 50.3041 81.1364 41.7524 81.1364 41.7524C77.9662 48.5435 71.8241 50.6395 71.8241 50.6395C71.8241 50.6395 73.7063 52.2325 78.2634 55.083C82.7215 57.9336 83.2168 74.7016 83.2168 74.7016C83.2168 74.7016 85.0991 63.7186 85.0991 62.6287C85 61.371 85 55.083 84.2075 49.6334Z" fill="#D07D00"/>
</g>
<path d="M42.6486 116.644C41.5588 116.141 40.0728 115.554 38.884 115.554C36.9027 115.638 33.9306 117.063 33.9306 117.063C33.9306 117.063 33.1381 116.393 29.4726 118.405C25.8071 120.417 22.2407 121.172 22.2407 121.172L19.1696 122.345C19.1696 122.345 14.0181 121.926 13.1264 121.423C12.3339 120.836 11.1451 118.489 11.1451 118.153C11.1451 117.818 11.046 115.89 10.4516 114.548C9.85721 113.207 9.16374 112.117 9.16374 112.117C9.16374 112.117 7.87586 109.266 6.88518 106.835C5.89451 104.404 6.09264 97.1933 6.09264 97.1933V93.1689C6.09264 93.1689 4.90383 104.823 5.10197 106.919C5.3001 109.015 4.90383 114.464 5.10197 116.644C5.3001 118.824 5.69637 121.758 5.0029 123.603C4.30943 125.364 5.59731 131.4 5.59731 131.4L6.88518 130.729C6.88518 130.729 6.29078 136.766 7.18239 138.527C7.97493 140.287 9.26281 145.569 11.4423 148.503L11.7395 147.33C11.7395 147.33 13.7208 151.27 14.6125 152.025C15.5041 152.779 22.2407 158.397 27.4912 160.241C32.7418 162.002 36.3083 163.427 36.3083 163.427L41.0635 164.265L42.5495 164.685L44.0355 164.265L48.7908 163.427C48.7908 163.427 52.3572 162.002 57.6078 160.241C62.8584 158.48 69.595 152.779 70.4866 152.025C71.3782 151.27 73.3595 147.33 73.3595 147.33L73.6567 148.503C75.7372 145.569 77.025 140.287 77.9166 138.527C78.7092 136.766 78.2139 130.729 78.2139 130.729L79.4027 131.4C79.4027 131.4 80.6905 125.364 79.9971 123.603C79.3036 121.842 79.6999 118.824 79.898 116.644C80.0961 114.464 79.6999 109.015 79.898 106.919C80.0961 104.823 78.9073 93.1689 78.9073 93.1689V97.1933C78.9073 97.1933 79.1055 104.404 78.1148 106.835C77.1241 109.266 75.8362 112.117 75.8362 112.117C75.8362 112.117 75.1428 113.207 74.5484 114.548C73.9539 115.89 73.8549 117.818 73.8549 118.153C73.8549 118.489 72.7651 120.92 71.8735 121.423C71.081 122.01 65.8304 122.345 65.8304 122.345L62.7593 121.172C62.7593 121.172 59.1929 120.501 55.5274 118.405C51.9609 116.393 51.0693 117.063 51.0693 117.063C51.0693 117.063 48.0973 115.638 46.116 115.554C45.2243 115.554 43.7383 116.141 42.6486 116.644ZM42.6486 127.46C39.8747 127.543 35.4167 127.376 34.9213 127.376C34.2278 127.376 29.5717 126.202 29.5717 126.202C29.5717 126.202 31.7512 125.447 33.7325 125.028C35.7139 124.609 38.6859 124.441 38.9831 124.358C39.2803 124.274 41.6579 124.358 41.6579 124.358H42.6486H43.6393C43.6393 124.358 46.0169 124.274 46.3141 124.358C46.6113 124.441 49.6824 124.693 51.5647 125.028C53.546 125.447 55.7255 126.202 55.7255 126.202C55.7255 126.202 50.9703 127.376 50.3759 127.376C49.8805 127.376 45.4225 127.627 42.6486 127.46Z" fill="#D07D00"/>
<defs>
<clipPath id="clip0_487_3022">
<rect width="85" height="74.6178" fill="white"/>
</clipPath>
</defs>
</svg>
