<svg width="134" height="208" viewBox="0 0 134 208" fill="none" xmlns="http://www.w3.org/2000/svg">
<path d="M33.7634 204.24C33.7634 204.24 20.5092 140.926 34.2004 114.97L36.1667 120.406C36.1667 120.406 32.671 107.077 34.8558 97.4311C37.0406 87.785 41.2644 68.6681 50.7318 61.8281C50.7318 61.8281 43.8862 79.3665 50.7318 107.077C50.7318 107.077 44.1046 49.2005 67.2632 54.9881C67.2632 54.9881 59.3252 66.7389 63.2578 90.5911C63.2578 90.5911 62.9665 59.7235 73.8175 57.4435L78.6968 62.8804C78.6968 62.8804 85.1054 64.4589 86.4163 72.5266C87.7272 80.4188 89.2565 95.3265 85.1054 103.92C85.1054 103.92 89.6934 97.7819 89.2565 86.2065C89.2565 86.2065 92.0967 95.3265 90.7858 106.025C90.7858 106.025 95.6651 119.003 96.2477 126.369C97.7043 146.363 99.9619 165.305 92.7521 202.135L91.5869 171.619C91.5869 171.619 93.9902 136.542 86.4891 124.616C77.5316 110.234 65.9523 117.25 65.9523 117.25C65.9523 117.25 45.4883 109.708 38.6427 127.246C38.6427 127.246 32.8895 138.12 35.2928 173.723C35.2928 173.548 34.2004 185.649 33.7634 204.24Z" fill="#FDAD11"/>
<g filter="url(#filter0_d_487_3023)">
<ellipse cx="11.3823" cy="7.94306" rx="11.3823" ry="7.94306" transform="matrix(0.24004 -0.970763 0.595781 0.803147 44.6052 67.4221)" fill="white"/>
<ellipse cx="10.1373" cy="7.07424" rx="10.1373" ry="7.07424" transform="matrix(0.24004 -0.970763 0.595781 0.803147 45.7205 65.7026)" fill="#F9F9F9"/>
<ellipse cx="8.45186" cy="5.89807" rx="8.45186" ry="5.89807" transform="matrix(0.24004 -0.970763 0.595781 0.803147 47.2305 63.3752)" fill="#F6F5F5"/>
</g>
<g filter="url(#filter1_d_487_3023)">
<ellipse cx="11.3823" cy="7.94306" rx="11.3823" ry="7.94306" transform="matrix(0.24004 -0.970763 0.595781 0.803147 52.0696 77.0659)" fill="white"/>
<ellipse cx="10.1373" cy="7.07424" rx="10.1373" ry="7.07424" transform="matrix(0.24004 -0.970763 0.595781 0.803147 53.1848 75.3464)" fill="#F9F9F9"/>
<ellipse cx="8.45186" cy="5.89807" rx="8.45186" ry="5.89807" transform="matrix(0.24004 -0.970763 0.595781 0.803147 54.6948 73.019)" fill="#F6F5F5"/>
</g>
<g filter="url(#filter2_d_487_3023)">
<ellipse cx="11.3823" cy="7.94306" rx="11.3823" ry="7.94306" transform="matrix(0.24004 -0.970763 0.595781 0.803147 54.0698 63.0989)" fill="white"/>
<ellipse cx="10.1373" cy="7.07424" rx="10.1373" ry="7.07424" transform="matrix(0.24004 -0.970763 0.595781 0.803147 55.1851 61.3794)" fill="#F9F9F9"/>
<ellipse cx="8.45186" cy="5.89807" rx="8.45186" ry="5.89807" transform="matrix(0.24004 -0.970763 0.595781 0.803147 56.6951 59.052)" fill="#F6F5F5"/>
</g>
<g filter="url(#filter3_d_487_3023)">
<ellipse cx="11.3823" cy="7.94306" rx="11.3823" ry="7.94306" transform="matrix(0.24004 -0.970763 0.595781 0.803147 62.238 63.0989)" fill="white"/>
<ellipse cx="10.1373" cy="7.07424" rx="10.1373" ry="7.07424" transform="matrix(0.24004 -0.970763 0.595781 0.803147 63.3533 61.3794)" fill="#F9F9F9"/>
<ellipse cx="8.45186" cy="5.89807" rx="8.45186" ry="5.89807" transform="matrix(0.24004 -0.970763 0.595781 0.803147 64.8633 59.052)" fill="#F6F5F5"/>
</g>
<g filter="url(#filter4_d_487_3023)">
<ellipse cx="11.3823" cy="7.94306" rx="11.3823" ry="7.94306" transform="matrix(0.24004 -0.970763 0.595781 0.803147 70.0012 71.5598)" fill="white"/>
<ellipse cx="10.1373" cy="7.07424" rx="10.1373" ry="7.07424" transform="matrix(0.24004 -0.970763 0.595781 0.803147 71.1165 69.8403)" fill="#F9F9F9"/>
<ellipse cx="8.45186" cy="5.89807" rx="8.45186" ry="5.89807" transform="matrix(0.24004 -0.970763 0.595781 0.803147 72.6265 67.5129)" fill="#F6F5F5"/>
</g>
<g filter="url(#filter5_d_487_3023)">
<ellipse cx="11.3823" cy="7.94306" rx="11.3823" ry="7.94306" transform="matrix(0.24004 -0.970763 0.595781 0.803147 67.2629 90.5437)" fill="white"/>
<ellipse cx="10.1373" cy="7.07424" rx="10.1373" ry="7.07424" transform="matrix(0.24004 -0.970763 0.595781 0.803147 68.3782 88.8242)" fill="#F9F9F9"/>
<ellipse cx="8.45186" cy="5.89807" rx="8.45186" ry="5.89807" transform="matrix(0.24004 -0.970763 0.595781 0.803147 69.8882 86.4968)" fill="#F6F5F5"/>
</g>
<g filter="url(#filter6_d_487_3023)">
<ellipse cx="11.3823" cy="7.94306" rx="11.3823" ry="7.94306" transform="matrix(0.24004 -0.970763 0.595782 0.803147 59.0166 102.28)" fill="white"/>
<ellipse cx="10.1373" cy="7.07424" rx="10.1373" ry="7.07424" transform="matrix(0.24004 -0.970763 0.595782 0.803147 60.1318 100.561)" fill="#F9F9F9"/>
<ellipse cx="8.45186" cy="5.89807" rx="8.45186" ry="5.89807" transform="matrix(0.24004 -0.970763 0.595782 0.803147 61.6418 98.2332)" fill="#F6F5F5"/>
</g>
<g filter="url(#filter7_d_487_3023)">
<ellipse cx="11.3823" cy="7.94306" rx="11.3823" ry="7.94306" transform="matrix(0.24004 -0.970763 0.595781 0.803147 42.605 87.1633)" fill="white"/>
<ellipse cx="10.1373" cy="7.07424" rx="10.1373" ry="7.07424" transform="matrix(0.24004 -0.970763 0.595781 0.803147 43.7202 85.4438)" fill="#F9F9F9"/>
<ellipse cx="8.45186" cy="5.89807" rx="8.45186" ry="5.89807" transform="matrix(0.24004 -0.970763 0.595781 0.803147 45.2302 83.1165)" fill="#F6F5F5"/>
</g>
<g filter="url(#filter8_d_487_3023)">
<ellipse cx="11.3823" cy="7.94306" rx="11.3823" ry="7.94306" transform="matrix(0.24004 -0.970763 0.595781 0.803147 52.0696 91.833)" fill="white"/>
<ellipse cx="10.1373" cy="7.07424" rx="10.1373" ry="7.07424" transform="matrix(0.24004 -0.970763 0.595781 0.803147 53.1848 90.1135)" fill="#F9F9F9"/>
<ellipse cx="8.45186" cy="5.89807" rx="8.45186" ry="5.89807" transform="matrix(0.24004 -0.970763 0.595781 0.803147 54.6948 87.7861)" fill="#F6F5F5"/>
</g>
<g filter="url(#filter9_d_487_3023)">
<ellipse cx="11.3823" cy="7.94306" rx="11.3823" ry="7.94306" transform="matrix(0.24004 -0.970763 0.595781 0.803147 61.5344 81.7361)" fill="white"/>
<ellipse cx="10.1373" cy="7.07424" rx="10.1373" ry="7.07424" transform="matrix(0.24004 -0.970763 0.595781 0.803147 62.6497 80.0166)" fill="#F9F9F9"/>
<ellipse cx="8.45186" cy="5.89807" rx="8.45186" ry="5.89807" transform="matrix(0.24004 -0.970763 0.595781 0.803147 64.1597 77.6892)" fill="#F6F5F5"/>
</g>
<g filter="url(#filter10_d_487_3023)">
<ellipse cx="11.3823" cy="7.94306" rx="11.3823" ry="7.94306" transform="matrix(0.24004 -0.970763 0.595781 0.803147 77.4658 81.8237)" fill="white"/>
<ellipse cx="10.1373" cy="7.07424" rx="10.1373" ry="7.07424" transform="matrix(0.24004 -0.970763 0.595781 0.803147 78.5811 80.1042)" fill="#F9F9F9"/>
<ellipse cx="8.45186" cy="5.89807" rx="8.45186" ry="5.89807" transform="matrix(0.24004 -0.970763 0.595781 0.803147 80.0911 77.7769)" fill="#F6F5F5"/>
</g>
<g filter="url(#filter11_d_487_3023)">
<ellipse cx="5.32404" cy="3.71534" rx="5.32404" ry="3.71534" transform="matrix(0.24004 -0.970763 0.595781 0.803147 81.2068 56.6096)" fill="white"/>
<ellipse cx="4.74169" cy="3.30896" rx="4.74169" ry="3.30896" transform="matrix(0.24004 -0.970763 0.595781 0.803147 81.7285 55.8054)" fill="#F9F9F9"/>
<ellipse cx="3.95333" cy="2.75881" rx="3.95333" ry="2.75881" transform="matrix(0.24004 -0.970763 0.595781 0.803147 82.4348 54.7166)" fill="#F6F5F5"/>
</g>
<g filter="url(#filter12_d_487_3023)">
<ellipse cx="0.75329" cy="0.525678" rx="0.75329" ry="0.525678" transform="matrix(0.24004 -0.970763 0.595781 0.803147 43.2263 67.6819)" fill="white"/>
<ellipse cx="0.670894" cy="0.468179" rx="0.670894" ry="0.468179" transform="matrix(0.24004 -0.970763 0.595781 0.803147 43.3 67.5681)" fill="#F9F9F9"/>
<ellipse cx="0.559351" cy="0.390339" rx="0.559351" ry="0.390339" transform="matrix(0.24004 -0.970763 0.595781 0.803147 43.4001 67.4141)" fill="#F6F5F5"/>
</g>
<g filter="url(#filter13_d_487_3023)">
<ellipse cx="0.75329" cy="0.525678" rx="0.75329" ry="0.525678" transform="matrix(0.24004 -0.970763 0.595781 0.803147 65.1538 40.6833)" fill="white"/>
<ellipse cx="0.670894" cy="0.468179" rx="0.670894" ry="0.468179" transform="matrix(0.24004 -0.970763 0.595781 0.803147 65.2275 40.5696)" fill="#F9F9F9"/>
<ellipse cx="0.559351" cy="0.390339" rx="0.559351" ry="0.390339" transform="matrix(0.24004 -0.970763 0.595781 0.803147 65.3276 40.4155)" fill="#F6F5F5"/>
</g>
<g filter="url(#filter14_d_487_3023)">
<ellipse cx="0.75329" cy="0.525678" rx="0.75329" ry="0.525678" transform="matrix(0.24004 -0.970763 0.595781 0.803147 84.072 42.3162)" fill="white"/>
<ellipse cx="0.670894" cy="0.468179" rx="0.670894" ry="0.468179" transform="matrix(0.24004 -0.970763 0.595781 0.803147 84.1458 42.2024)" fill="#F9F9F9"/>
<ellipse cx="0.559351" cy="0.390339" rx="0.559351" ry="0.390339" transform="matrix(0.24004 -0.970763 0.595781 0.803147 84.2458 42.0483)" fill="#F6F5F5"/>
</g>
<defs>
<filter id="filter0_d_487_3023" x="1.60522" y="6.323" width="100.929" height="120.858" filterUnits="userSpaceOnUse" color-interpolation-filters="sRGB">
<feFlood flood-opacity="0" result="BackgroundImageFix"/>
<feColorMatrix in="SourceAlpha" type="matrix" values="0 0 0 0 0 0 0 0 0 0 0 0 0 0 0 0 0 0 127 0" result="hardAlpha"/>
<feMorphology radius="8" operator="dilate" in="SourceAlpha" result="effect1_dropShadow_487_3023"/>
<feOffset dy="4"/>
<feGaussianBlur stdDeviation="17.5"/>
<feComposite in2="hardAlpha" operator="out"/>
<feColorMatrix type="matrix" values="0 0 0 0 0.117647 0 0 0 0 0.117647 0 0 0 0 0.117647 0 0 0 0.08 0"/>
<feBlend mode="normal" in2="BackgroundImageFix" result="effect1_dropShadow_487_3023"/>
<feBlend mode="normal" in="SourceGraphic" in2="effect1_dropShadow_487_3023" result="shape"/>
</filter>
<filter id="filter1_d_487_3023" x="9.06958" y="15.9668" width="100.929" height="120.858" filterUnits="userSpaceOnUse" color-interpolation-filters="sRGB">
<feFlood flood-opacity="0" result="BackgroundImageFix"/>
<feColorMatrix in="SourceAlpha" type="matrix" values="0 0 0 0 0 0 0 0 0 0 0 0 0 0 0 0 0 0 127 0" result="hardAlpha"/>
<feMorphology radius="8" operator="dilate" in="SourceAlpha" result="effect1_dropShadow_487_3023"/>
<feOffset dy="4"/>
<feGaussianBlur stdDeviation="17.5"/>
<feComposite in2="hardAlpha" operator="out"/>
<feColorMatrix type="matrix" values="0 0 0 0 0.117647 0 0 0 0 0.117647 0 0 0 0 0.117647 0 0 0 0.08 0"/>
<feBlend mode="normal" in2="BackgroundImageFix" result="effect1_dropShadow_487_3023"/>
<feBlend mode="normal" in="SourceGraphic" in2="effect1_dropShadow_487_3023" result="shape"/>
</filter>
<filter id="filter2_d_487_3023" x="11.0698" y="1.99976" width="100.929" height="120.858" filterUnits="userSpaceOnUse" color-interpolation-filters="sRGB">
<feFlood flood-opacity="0" result="BackgroundImageFix"/>
<feColorMatrix in="SourceAlpha" type="matrix" values="0 0 0 0 0 0 0 0 0 0 0 0 0 0 0 0 0 0 127 0" result="hardAlpha"/>
<feMorphology radius="8" operator="dilate" in="SourceAlpha" result="effect1_dropShadow_487_3023"/>
<feOffset dy="4"/>
<feGaussianBlur stdDeviation="17.5"/>
<feComposite in2="hardAlpha" operator="out"/>
<feColorMatrix type="matrix" values="0 0 0 0 0.117647 0 0 0 0 0.117647 0 0 0 0 0.117647 0 0 0 0.08 0"/>
<feBlend mode="normal" in2="BackgroundImageFix" result="effect1_dropShadow_487_3023"/>
<feBlend mode="normal" in="SourceGraphic" in2="effect1_dropShadow_487_3023" result="shape"/>
</filter>
<filter id="filter3_d_487_3023" x="19.238" y="1.99976" width="100.929" height="120.858" filterUnits="userSpaceOnUse" color-interpolation-filters="sRGB">
<feFlood flood-opacity="0" result="BackgroundImageFix"/>
<feColorMatrix in="SourceAlpha" type="matrix" values="0 0 0 0 0 0 0 0 0 0 0 0 0 0 0 0 0 0 127 0" result="hardAlpha"/>
<feMorphology radius="8" operator="dilate" in="SourceAlpha" result="effect1_dropShadow_487_3023"/>
<feOffset dy="4"/>
<feGaussianBlur stdDeviation="17.5"/>
<feComposite in2="hardAlpha" operator="out"/>
<feColorMatrix type="matrix" values="0 0 0 0 0.117647 0 0 0 0 0.117647 0 0 0 0 0.117647 0 0 0 0.08 0"/>
<feBlend mode="normal" in2="BackgroundImageFix" result="effect1_dropShadow_487_3023"/>
<feBlend mode="normal" in="SourceGraphic" in2="effect1_dropShadow_487_3023" result="shape"/>
</filter>
<filter id="filter4_d_487_3023" x="27.0012" y="10.4607" width="100.929" height="120.858" filterUnits="userSpaceOnUse" color-interpolation-filters="sRGB">
<feFlood flood-opacity="0" result="BackgroundImageFix"/>
<feColorMatrix in="SourceAlpha" type="matrix" values="0 0 0 0 0 0 0 0 0 0 0 0 0 0 0 0 0 0 127 0" result="hardAlpha"/>
<feMorphology radius="8" operator="dilate" in="SourceAlpha" result="effect1_dropShadow_487_3023"/>
<feOffset dy="4"/>
<feGaussianBlur stdDeviation="17.5"/>
<feComposite in2="hardAlpha" operator="out"/>
<feColorMatrix type="matrix" values="0 0 0 0 0.117647 0 0 0 0 0.117647 0 0 0 0 0.117647 0 0 0 0.08 0"/>
<feBlend mode="normal" in2="BackgroundImageFix" result="effect1_dropShadow_487_3023"/>
<feBlend mode="normal" in="SourceGraphic" in2="effect1_dropShadow_487_3023" result="shape"/>
</filter>
<filter id="filter5_d_487_3023" x="24.2629" y="29.4446" width="100.929" height="120.858" filterUnits="userSpaceOnUse" color-interpolation-filters="sRGB">
<feFlood flood-opacity="0" result="BackgroundImageFix"/>
<feColorMatrix in="SourceAlpha" type="matrix" values="0 0 0 0 0 0 0 0 0 0 0 0 0 0 0 0 0 0 127 0" result="hardAlpha"/>
<feMorphology radius="8" operator="dilate" in="SourceAlpha" result="effect1_dropShadow_487_3023"/>
<feOffset dy="4"/>
<feGaussianBlur stdDeviation="17.5"/>
<feComposite in2="hardAlpha" operator="out"/>
<feColorMatrix type="matrix" values="0 0 0 0 0.117647 0 0 0 0 0.117647 0 0 0 0 0.117647 0 0 0 0.08 0"/>
<feBlend mode="normal" in2="BackgroundImageFix" result="effect1_dropShadow_487_3023"/>
<feBlend mode="normal" in="SourceGraphic" in2="effect1_dropShadow_487_3023" result="shape"/>
</filter>
<filter id="filter6_d_487_3023" x="16.0166" y="41.1809" width="100.929" height="120.858" filterUnits="userSpaceOnUse" color-interpolation-filters="sRGB">
<feFlood flood-opacity="0" result="BackgroundImageFix"/>
<feColorMatrix in="SourceAlpha" type="matrix" values="0 0 0 0 0 0 0 0 0 0 0 0 0 0 0 0 0 0 127 0" result="hardAlpha"/>
<feMorphology radius="8" operator="dilate" in="SourceAlpha" result="effect1_dropShadow_487_3023"/>
<feOffset dy="4"/>
<feGaussianBlur stdDeviation="17.5"/>
<feComposite in2="hardAlpha" operator="out"/>
<feColorMatrix type="matrix" values="0 0 0 0 0.117647 0 0 0 0 0.117647 0 0 0 0 0.117647 0 0 0 0.08 0"/>
<feBlend mode="normal" in2="BackgroundImageFix" result="effect1_dropShadow_487_3023"/>
<feBlend mode="normal" in="SourceGraphic" in2="effect1_dropShadow_487_3023" result="shape"/>
</filter>
<filter id="filter7_d_487_3023" x="-0.39502" y="26.0642" width="100.929" height="120.858" filterUnits="userSpaceOnUse" color-interpolation-filters="sRGB">
<feFlood flood-opacity="0" result="BackgroundImageFix"/>
<feColorMatrix in="SourceAlpha" type="matrix" values="0 0 0 0 0 0 0 0 0 0 0 0 0 0 0 0 0 0 127 0" result="hardAlpha"/>
<feMorphology radius="8" operator="dilate" in="SourceAlpha" result="effect1_dropShadow_487_3023"/>
<feOffset dy="4"/>
<feGaussianBlur stdDeviation="17.5"/>
<feComposite in2="hardAlpha" operator="out"/>
<feColorMatrix type="matrix" values="0 0 0 0 0.117647 0 0 0 0 0.117647 0 0 0 0 0.117647 0 0 0 0.08 0"/>
<feBlend mode="normal" in2="BackgroundImageFix" result="effect1_dropShadow_487_3023"/>
<feBlend mode="normal" in="SourceGraphic" in2="effect1_dropShadow_487_3023" result="shape"/>
</filter>
<filter id="filter8_d_487_3023" x="9.06958" y="30.7339" width="100.929" height="120.858" filterUnits="userSpaceOnUse" color-interpolation-filters="sRGB">
<feFlood flood-opacity="0" result="BackgroundImageFix"/>
<feColorMatrix in="SourceAlpha" type="matrix" values="0 0 0 0 0 0 0 0 0 0 0 0 0 0 0 0 0 0 127 0" result="hardAlpha"/>
<feMorphology radius="8" operator="dilate" in="SourceAlpha" result="effect1_dropShadow_487_3023"/>
<feOffset dy="4"/>
<feGaussianBlur stdDeviation="17.5"/>
<feComposite in2="hardAlpha" operator="out"/>
<feColorMatrix type="matrix" values="0 0 0 0 0.117647 0 0 0 0 0.117647 0 0 0 0 0.117647 0 0 0 0.08 0"/>
<feBlend mode="normal" in2="BackgroundImageFix" result="effect1_dropShadow_487_3023"/>
<feBlend mode="normal" in="SourceGraphic" in2="effect1_dropShadow_487_3023" result="shape"/>
</filter>
<filter id="filter9_d_487_3023" x="18.5344" y="20.637" width="100.929" height="120.858" filterUnits="userSpaceOnUse" color-interpolation-filters="sRGB">
<feFlood flood-opacity="0" result="BackgroundImageFix"/>
<feColorMatrix in="SourceAlpha" type="matrix" values="0 0 0 0 0 0 0 0 0 0 0 0 0 0 0 0 0 0 127 0" result="hardAlpha"/>
<feMorphology radius="8" operator="dilate" in="SourceAlpha" result="effect1_dropShadow_487_3023"/>
<feOffset dy="4"/>
<feGaussianBlur stdDeviation="17.5"/>
<feComposite in2="hardAlpha" operator="out"/>
<feColorMatrix type="matrix" values="0 0 0 0 0.117647 0 0 0 0 0.117647 0 0 0 0 0.117647 0 0 0 0.08 0"/>
<feBlend mode="normal" in2="BackgroundImageFix" result="effect1_dropShadow_487_3023"/>
<feBlend mode="normal" in="SourceGraphic" in2="effect1_dropShadow_487_3023" result="shape"/>
</filter>
<filter id="filter10_d_487_3023" x="34.4658" y="20.7246" width="100.929" height="120.858" filterUnits="userSpaceOnUse" color-interpolation-filters="sRGB">
<feFlood flood-opacity="0" result="BackgroundImageFix"/>
<feColorMatrix in="SourceAlpha" type="matrix" values="0 0 0 0 0 0 0 0 0 0 0 0 0 0 0 0 0 0 127 0" result="hardAlpha"/>
<feMorphology radius="8" operator="dilate" in="SourceAlpha" result="effect1_dropShadow_487_3023"/>
<feOffset dy="4"/>
<feGaussianBlur stdDeviation="17.5"/>
<feComposite in2="hardAlpha" operator="out"/>
<feColorMatrix type="matrix" values="0 0 0 0 0.117647 0 0 0 0 0.117647 0 0 0 0 0.117647 0 0 0 0.08 0"/>
<feBlend mode="normal" in2="BackgroundImageFix" result="effect1_dropShadow_487_3023"/>
<feBlend mode="normal" in="SourceGraphic" in2="effect1_dropShadow_487_3023" result="shape"/>
</filter>
<filter id="filter11_d_487_3023" x="38.2068" y="7.27295" width="92.9829" height="102.305" filterUnits="userSpaceOnUse" color-interpolation-filters="sRGB">
<feFlood flood-opacity="0" result="BackgroundImageFix"/>
<feColorMatrix in="SourceAlpha" type="matrix" values="0 0 0 0 0 0 0 0 0 0 0 0 0 0 0 0 0 0 127 0" result="hardAlpha"/>
<feMorphology radius="8" operator="dilate" in="SourceAlpha" result="effect1_dropShadow_487_3023"/>
<feOffset dy="4"/>
<feGaussianBlur stdDeviation="17.5"/>
<feComposite in2="hardAlpha" operator="out"/>
<feColorMatrix type="matrix" values="0 0 0 0 0.117647 0 0 0 0 0.117647 0 0 0 0 0.117647 0 0 0 0.08 0"/>
<feBlend mode="normal" in2="BackgroundImageFix" result="effect1_dropShadow_487_3023"/>
<feBlend mode="normal" in="SourceGraphic" in2="effect1_dropShadow_487_3023" result="shape"/>
</filter>
<filter id="filter12_d_487_3023" x="0.226318" y="27.2192" width="86.988" height="88.3071" filterUnits="userSpaceOnUse" color-interpolation-filters="sRGB">
<feFlood flood-opacity="0" result="BackgroundImageFix"/>
<feColorMatrix in="SourceAlpha" type="matrix" values="0 0 0 0 0 0 0 0 0 0 0 0 0 0 0 0 0 0 127 0" result="hardAlpha"/>
<feMorphology radius="8" operator="dilate" in="SourceAlpha" result="effect1_dropShadow_487_3023"/>
<feOffset dy="4"/>
<feGaussianBlur stdDeviation="17.5"/>
<feComposite in2="hardAlpha" operator="out"/>
<feColorMatrix type="matrix" values="0 0 0 0 0.117647 0 0 0 0 0.117647 0 0 0 0 0.117647 0 0 0 0.08 0"/>
<feBlend mode="normal" in2="BackgroundImageFix" result="effect1_dropShadow_487_3023"/>
<feBlend mode="normal" in="SourceGraphic" in2="effect1_dropShadow_487_3023" result="shape"/>
</filter>
<filter id="filter13_d_487_3023" x="22.1538" y="0.220703" width="86.988" height="88.3071" filterUnits="userSpaceOnUse" color-interpolation-filters="sRGB">
<feFlood flood-opacity="0" result="BackgroundImageFix"/>
<feColorMatrix in="SourceAlpha" type="matrix" values="0 0 0 0 0 0 0 0 0 0 0 0 0 0 0 0 0 0 127 0" result="hardAlpha"/>
<feMorphology radius="8" operator="dilate" in="SourceAlpha" result="effect1_dropShadow_487_3023"/>
<feOffset dy="4"/>
<feGaussianBlur stdDeviation="17.5"/>
<feComposite in2="hardAlpha" operator="out"/>
<feColorMatrix type="matrix" values="0 0 0 0 0.117647 0 0 0 0 0.117647 0 0 0 0 0.117647 0 0 0 0.08 0"/>
<feBlend mode="normal" in2="BackgroundImageFix" result="effect1_dropShadow_487_3023"/>
<feBlend mode="normal" in="SourceGraphic" in2="effect1_dropShadow_487_3023" result="shape"/>
</filter>
<filter id="filter14_d_487_3023" x="41.072" y="1.85352" width="86.988" height="88.3071" filterUnits="userSpaceOnUse" color-interpolation-filters="sRGB">
<feFlood flood-opacity="0" result="BackgroundImageFix"/>
<feColorMatrix in="SourceAlpha" type="matrix" values="0 0 0 0 0 0 0 0 0 0 0 0 0 0 0 0 0 0 127 0" result="hardAlpha"/>
<feMorphology radius="8" operator="dilate" in="SourceAlpha" result="effect1_dropShadow_487_3023"/>
<feOffset dy="4"/>
<feGaussianBlur stdDeviation="17.5"/>
<feComposite in2="hardAlpha" operator="out"/>
<feColorMatrix type="matrix" values="0 0 0 0 0.117647 0 0 0 0 0.117647 0 0 0 0 0.117647 0 0 0 0.08 0"/>
<feBlend mode="normal" in2="BackgroundImageFix" result="effect1_dropShadow_487_3023"/>
<feBlend mode="normal" in="SourceGraphic" in2="effect1_dropShadow_487_3023" result="shape"/>
</filter>
</defs>
</svg>
