<svg width="86" height="90" viewBox="0 0 86 90" fill="none" xmlns="http://www.w3.org/2000/svg">
<g clip-path="url(#clip0_2_211)">
<path d="M2.90002 75.0161C2.90002 80.8161 4.80002 87.9161 4.80002 87.9161L10 65.2161L2.90002 62.0161C2.90002 62.0161 2.90002 69.3161 2.90002 75.0161Z" fill="#1E1B16"/>
<path d="M85.1 59.7161C84.3 53.3161 83.1 48.3161 83.1 48.3161C83.1 48.3161 85.2 45.7161 85 42.0161C84.8 38.3161 81.9 38.1161 80.2 34.2161C78.4 30.3161 74.5 30.8161 74.5 30.8161C74 28.7161 66.4 25.6161 63.7 25.8161C61 26.0161 60.6 26.0161 58.4 23.2161C56.1 20.5161 48.7 22.6161 42.9 19.7161C37.1 16.8161 39.2 7.11611 39.2 7.11611L36.3 12.9161C37.8 8.41611 34.4 2.11611 34.4 2.11611C36 7.31611 32.9 12.0161 32.9 12.0161V8.21611C32.9 13.8161 29.3 15.6161 29.3 15.6161L26.6 10.7161C26.6 10.7161 28.2 20.6161 22.9 16.7161C17.6 12.8161 20.8 3.81611 20.8 3.81611C19.2 5.61611 16.8 10.7161 16.8 10.7161C16.1 3.51611 21.8 0.516113 21.8 0.516113C21.8 0.516113 15 3.11611 9.99998 14.2161C5.19998 24.8161 12 30.7161 12.7 31.3161C7.89998 27.6161 6.49998 20.8161 6.49998 20.8161C1.79998 35.5161 6.49998 50.1161 6.49998 50.1161C2.89998 46.0161 1.09998 35.3161 1.09998 35.3161C1.09998 35.3161 -1.20002 40.9161 1.09998 51.5161C3.39998 62.1161 16.3 63.4161 16.9 63.3161C20.5 63.1161 22.2 62.8161 22.2 62.8161C14 59.3161 9.99998 44.3161 9.99998 44.3161C9.99998 44.3161 16.3 56.6161 20.7 60.4161C25.1 64.1161 35.1 64.3161 35.1 64.3161C32.4 62.0161 31.4 55.6161 30.7 50.2161C30.1 44.8161 18.6 29.0161 18.6 29.0161C18.6 29.0161 23.3 35.0161 29.9 43.4161C36.5 51.8161 32 62.3161 37.8 64.9161C43.6 67.5161 50.6 65.2161 50.6 65.2161C57.5 62.3161 57.2 56.0161 56.4 50.3161C55.6 44.6161 40.7 32.5161 40.7 32.5161C40.7 32.5161 46.5 36.8161 55.9 44.5161C65.3 52.2161 55.3 64.6161 55.3 64.6161C55.3 64.6161 61.1 59.9161 68.1 60.2161C75 60.5161 82 50.3161 82 50.3161C78.8 58.4161 72.6 60.9161 72.6 60.9161C72.6 60.9161 74.5 62.8161 79.1 66.2161C83.6 69.6161 84.1 89.6161 84.1 89.6161C84.1 89.6161 86 76.5161 86 75.2161C85.9 73.7161 85.9 66.2161 85.1 59.7161Z" fill="#1E1B16"/>
</g>
<defs>
<clipPath id="clip0_2_211">
<rect width="85.8" height="89" fill="white" transform="translate(0.0999756 0.516113)"/>
</clipPath>
</defs>
</svg>
