<svg width="202" height="34" viewBox="0 0 202 34" fill="none" xmlns="http://www.w3.org/2000/svg">
<path fill-rule="evenodd" clip-rule="evenodd" d="M5.1758 27.5978C4.23158 29.2377 4.79352 31.3356 6.43094 32.2836C8.06836 33.2315 10.1612 32.6706 11.1054 31.0306C12.0496 29.3907 11.4877 27.2928 9.85026 26.3448C8.21284 25.3969 6.12001 25.9578 5.1758 27.5978ZM6.31609 28.2579C5.73502 29.2671 6.08084 30.5582 7.08849 31.1415C8.09614 31.7249 9.38405 31.3797 9.96511 30.3705C10.5462 29.3613 10.2004 28.0703 9.19271 27.4869C8.18506 26.9035 6.89715 27.2487 6.31609 28.2579Z" fill="#FDAD11"/>
<path d="M10.329 27.3876L8.61244 26.394L23.1265 1.19043C24.9436 2.2422 25.497 4.61266 24.3334 6.35984L10.329 27.3876Z" fill="#FDAD11"/>
<path d="M16.6117 27.4219L18.3282 26.4283L3.81415 1.22473C1.99709 2.27651 1.44368 4.64696 2.6073 6.39415L16.6117 27.4219Z" fill="#FDAD11"/>
<path fill-rule="evenodd" clip-rule="evenodd" d="M15.8946 31.0306C16.8388 32.6706 18.9316 33.2315 20.569 32.2836C22.2064 31.3356 22.7684 29.2377 21.8242 27.5978C20.8799 25.9578 18.7871 25.3969 17.1497 26.3449C15.5123 27.2928 14.9503 29.3907 15.8946 31.0306ZM17.0348 30.3705C17.6159 31.3797 18.9038 31.7249 19.9115 31.1415C20.9191 30.5582 21.2649 29.2671 20.6839 28.2579C20.1028 27.2487 18.8149 26.9035 17.8072 27.4869C16.7996 28.0703 16.4538 29.3613 17.0348 30.3705Z" fill="#FDAD11"/>
<path d="M28.8182 10.8636H29.1364L33.8864 21.9545H33.9318L38.6818 10.8636H39V22.5H38.6364V12H38.5909L34.0909 22.5H33.7273L29.2273 12H29.1818V22.5H28.8182V10.8636ZM44.5398 22.6818C44.0625 22.6818 43.6212 22.5833 43.2159 22.3864C42.8144 22.1894 42.4905 21.9015 42.2443 21.5227C42.0019 21.1439 41.8807 20.6818 41.8807 20.1364C41.8807 19.8409 41.928 19.5644 42.0227 19.3068C42.1174 19.0455 42.2841 18.8087 42.5227 18.5966C42.7614 18.3845 43.0947 18.2027 43.5227 18.0511C43.9545 17.8996 44.5057 17.7841 45.1761 17.7045C45.5777 17.6591 45.9564 17.6061 46.3125 17.5455C46.6686 17.4848 46.9583 17.3939 47.1818 17.2727C47.4053 17.1515 47.517 16.9773 47.517 16.75V16.2273C47.517 15.5568 47.2917 15.0189 46.8409 14.6136C46.3902 14.2045 45.7898 14 45.0398 14C44.4261 14 43.8902 14.1364 43.4318 14.4091C42.9735 14.678 42.6534 15.0568 42.4716 15.5455L42.1307 15.4091C42.267 15.0455 42.4773 14.7311 42.7614 14.4659C43.0455 14.2008 43.3826 13.9962 43.7727 13.8523C44.1629 13.7083 44.5852 13.6364 45.0398 13.6364C45.483 13.6364 45.8788 13.7027 46.2273 13.8352C46.5795 13.964 46.8788 14.1458 47.125 14.3807C47.3712 14.6117 47.5587 14.8845 47.6875 15.1989C47.8163 15.5133 47.8807 15.8561 47.8807 16.2273V22.5H47.517V20.7273H47.4716C47.2898 21.1212 47.053 21.4659 46.7614 21.7614C46.4735 22.053 46.1402 22.2803 45.7614 22.4432C45.3864 22.6023 44.9792 22.6818 44.5398 22.6818ZM44.5398 22.3182C45.0928 22.3182 45.5947 22.1705 46.0455 21.875C46.4962 21.5758 46.8542 21.161 47.1193 20.6307C47.3845 20.0966 47.517 19.4773 47.517 18.7727V17.4545C47.411 17.5341 47.2822 17.6042 47.1307 17.6648C46.983 17.7254 46.8144 17.7803 46.625 17.8295C46.4394 17.875 46.2367 17.9148 46.017 17.9489C45.7973 17.983 45.5625 18.0152 45.3125 18.0455C44.5322 18.1364 43.9186 18.2746 43.4716 18.4602C43.0246 18.6458 42.7083 18.8788 42.5227 19.1591C42.3371 19.4394 42.2443 19.7652 42.2443 20.1364C42.2443 20.7955 42.464 21.3239 42.9034 21.7216C43.3466 22.1193 43.892 22.3182 44.5398 22.3182ZM51.3778 16.6364V22.5H51.0142V13.7727H51.3778V15.1591H51.4233C51.6278 14.7045 51.9631 14.3409 52.429 14.0682C52.8987 13.7955 53.4347 13.6591 54.0369 13.6591C54.6203 13.6591 55.1354 13.786 55.5824 14.0398C56.0294 14.2936 56.3797 14.6439 56.6335 15.0909C56.8873 15.5379 57.0142 16.053 57.0142 16.6364V22.5H56.6506V16.6364C56.6506 15.8636 56.4081 15.2348 55.9233 14.75C55.4384 14.2652 54.8097 14.0227 54.0369 14.0227C53.5218 14.0227 53.0634 14.1345 52.6619 14.358C52.2642 14.5814 51.9498 14.8902 51.7188 15.2841C51.4915 15.678 51.3778 16.1288 51.3778 16.6364ZM60.1534 13.7727H60.517V23.7727C60.517 24.1818 60.4242 24.536 60.2386 24.8352C60.053 25.1345 59.8087 25.3655 59.5057 25.5284C59.2027 25.6913 58.8731 25.7727 58.517 25.7727C58.4943 25.7727 58.4697 25.7708 58.4432 25.767C58.4167 25.767 58.3807 25.7614 58.3352 25.75L58.3807 25.4091C58.4034 25.4091 58.4261 25.4091 58.4489 25.4091C58.4716 25.4091 58.4943 25.4091 58.517 25.4091C58.9489 25.4091 59.3295 25.2633 59.6591 24.9716C59.9886 24.6799 60.1534 24.2803 60.1534 23.7727V13.7727ZM60.3352 12.1818C60.2367 12.1818 60.1515 12.1458 60.0795 12.0739C60.0076 12.0019 59.9716 11.9167 59.9716 11.8182C59.9716 11.7197 60.0076 11.6345 60.0795 11.5625C60.1515 11.4905 60.2367 11.4545 60.3352 11.4545C60.4337 11.4545 60.5189 11.4905 60.5909 11.5625C60.6629 11.6345 60.6989 11.7197 60.6989 11.8182C60.6989 11.9167 60.6629 12.0019 60.5909 12.0739C60.5189 12.1458 60.4337 12.1818 60.3352 12.1818ZM65.8366 22.6818C65.3594 22.6818 64.9181 22.5833 64.5128 22.3864C64.1113 22.1894 63.7874 21.9015 63.5412 21.5227C63.2988 21.1439 63.1776 20.6818 63.1776 20.1364C63.1776 19.8409 63.2249 19.5644 63.3196 19.3068C63.4143 19.0455 63.581 18.8087 63.8196 18.5966C64.0582 18.3845 64.3916 18.2027 64.8196 18.0511C65.2514 17.8996 65.8026 17.7841 66.473 17.7045C66.8745 17.6591 67.2533 17.6061 67.6094 17.5455C67.9654 17.4848 68.2552 17.3939 68.4787 17.2727C68.7022 17.1515 68.8139 16.9773 68.8139 16.75V16.2273C68.8139 15.5568 68.5885 15.0189 68.1378 14.6136C67.687 14.2045 67.0866 14 66.3366 14C65.723 14 65.187 14.1364 64.7287 14.4091C64.2704 14.678 63.9503 15.0568 63.7685 15.5455L63.4276 15.4091C63.5639 15.0455 63.7741 14.7311 64.0582 14.4659C64.3423 14.2008 64.6795 13.9962 65.0696 13.8523C65.4598 13.7083 65.8821 13.6364 66.3366 13.6364C66.7798 13.6364 67.1757 13.7027 67.5241 13.8352C67.8764 13.964 68.1757 14.1458 68.4219 14.3807C68.6681 14.6117 68.8556 14.8845 68.9844 15.1989C69.1132 15.5133 69.1776 15.8561 69.1776 16.2273V22.5H68.8139V20.7273H68.7685C68.5866 21.1212 68.3499 21.4659 68.0582 21.7614C67.7704 22.053 67.437 22.2803 67.0582 22.4432C66.6832 22.6023 66.276 22.6818 65.8366 22.6818ZM65.8366 22.3182C66.3897 22.3182 66.8916 22.1705 67.3423 21.875C67.7931 21.5758 68.151 21.161 68.4162 20.6307C68.6813 20.0966 68.8139 19.4773 68.8139 18.7727V17.4545C68.7079 17.5341 68.5791 17.6042 68.4276 17.6648C68.2798 17.7254 68.1113 17.7803 67.9219 17.8295C67.7363 17.875 67.5336 17.9148 67.3139 17.9489C67.0942 17.983 66.8594 18.0152 66.6094 18.0455C65.8291 18.1364 65.2154 18.2746 64.7685 18.4602C64.3215 18.6458 64.0052 18.8788 63.8196 19.1591C63.634 19.4394 63.5412 19.7652 63.5412 20.1364C63.5412 20.7955 63.7609 21.3239 64.2003 21.7216C64.6435 22.1193 65.1889 22.3182 65.8366 22.3182ZM75.4474 22.6818C74.7429 22.6818 74.1141 22.4848 73.5611 22.0909C73.0118 21.6932 72.5781 21.1534 72.2599 20.4716C71.9455 19.7898 71.7884 19.0189 71.7884 18.1591C71.7884 17.3068 71.9455 16.5398 72.2599 15.858C72.5743 15.1723 73.0062 14.6307 73.5554 14.233C74.1084 13.8352 74.7391 13.6364 75.4474 13.6364C75.9702 13.6364 76.4493 13.75 76.8849 13.9773C77.3243 14.2008 77.6918 14.5152 77.9872 14.9205C78.2827 15.322 78.474 15.7879 78.5611 16.3182H78.1747C78.0573 15.6326 77.7448 15.0758 77.2372 14.6477C76.7334 14.2159 76.1368 14 75.4474 14C74.8224 14 74.2599 14.1818 73.7599 14.5455C73.2637 14.9053 72.8717 15.3996 72.5838 16.0284C72.2959 16.6534 72.152 17.3636 72.152 18.1591C72.152 18.9318 72.2902 19.6326 72.5668 20.2614C72.8471 20.8902 73.2353 21.3902 73.7315 21.7614C74.2277 22.1326 74.7997 22.3182 75.4474 22.3182C75.9134 22.3182 76.3414 22.2216 76.7315 22.0284C77.1217 21.8314 77.4455 21.5549 77.7031 21.1989C77.9645 20.8428 78.1293 20.428 78.1974 19.9545H78.5838C78.5005 20.5038 78.3111 20.983 78.0156 21.392C77.7202 21.8011 77.3509 22.1193 76.9077 22.3466C76.4645 22.5701 75.9777 22.6818 75.4474 22.6818ZM83.3366 22.6818C82.8594 22.6818 82.4181 22.5833 82.0128 22.3864C81.6113 22.1894 81.2874 21.9015 81.0412 21.5227C80.7988 21.1439 80.6776 20.6818 80.6776 20.1364C80.6776 19.8409 80.7249 19.5644 80.8196 19.3068C80.9143 19.0455 81.081 18.8087 81.3196 18.5966C81.5582 18.3845 81.8916 18.2027 82.3196 18.0511C82.7514 17.8996 83.3026 17.7841 83.973 17.7045C84.3745 17.6591 84.7533 17.6061 85.1094 17.5455C85.4654 17.4848 85.7552 17.3939 85.9787 17.2727C86.2022 17.1515 86.3139 16.9773 86.3139 16.75V16.2273C86.3139 15.5568 86.0885 15.0189 85.6378 14.6136C85.187 14.2045 84.5866 14 83.8366 14C83.223 14 82.687 14.1364 82.2287 14.4091C81.7704 14.678 81.4503 15.0568 81.2685 15.5455L80.9276 15.4091C81.0639 15.0455 81.2741 14.7311 81.5582 14.4659C81.8423 14.2008 82.1795 13.9962 82.5696 13.8523C82.9598 13.7083 83.3821 13.6364 83.8366 13.6364C84.2798 13.6364 84.6757 13.7027 85.0241 13.8352C85.3764 13.964 85.6757 14.1458 85.9219 14.3807C86.1681 14.6117 86.3556 14.8845 86.4844 15.1989C86.6132 15.5133 86.6776 15.8561 86.6776 16.2273V22.5H86.3139V20.7273H86.2685C86.0866 21.1212 85.8499 21.4659 85.5582 21.7614C85.2704 22.053 84.937 22.2803 84.5582 22.4432C84.1832 22.6023 83.776 22.6818 83.3366 22.6818ZM83.3366 22.3182C83.8897 22.3182 84.3916 22.1705 84.8423 21.875C85.2931 21.5758 85.651 21.161 85.9162 20.6307C86.1813 20.0966 86.3139 19.4773 86.3139 18.7727V17.4545C86.2079 17.5341 86.0791 17.6042 85.9276 17.6648C85.7798 17.7254 85.6113 17.7803 85.4219 17.8295C85.2363 17.875 85.0336 17.9148 84.8139 17.9489C84.5942 17.983 84.3594 18.0152 84.1094 18.0455C83.3291 18.1364 82.7154 18.2746 82.2685 18.4602C81.8215 18.6458 81.5052 18.8788 81.3196 19.1591C81.134 19.4394 81.0412 19.7652 81.0412 20.1364C81.0412 20.7955 81.2609 21.3239 81.7003 21.7216C82.1435 22.1193 82.6889 22.3182 83.3366 22.3182ZM95.0384 15.6136L94.6747 15.7045C94.5573 15.3258 94.3925 15.0114 94.1804 14.7614C93.9721 14.5076 93.7164 14.3182 93.4134 14.1932C93.1103 14.0644 92.758 14 92.3565 14C91.6596 14 91.0952 14.178 90.6634 14.5341C90.2315 14.8864 90.0156 15.3523 90.0156 15.9318C90.0156 16.3902 90.1615 16.7746 90.4531 17.0852C90.7486 17.3958 91.1937 17.625 91.7884 17.7727L93.152 18.1136C93.7921 18.2727 94.277 18.5417 94.6065 18.9205C94.9399 19.2992 95.1065 19.7576 95.1065 20.2955C95.1065 20.7689 94.9815 21.1856 94.7315 21.5455C94.4853 21.9053 94.1444 22.1856 93.7088 22.3864C93.2732 22.5833 92.7694 22.6818 92.1974 22.6818C91.4209 22.6818 90.7865 22.4924 90.294 22.1136C89.8016 21.7348 89.4815 21.197 89.3338 20.5L89.6974 20.4091C89.8262 21.0265 90.1009 21.5 90.5213 21.8295C90.9455 22.1553 91.5043 22.3182 92.1974 22.3182C92.955 22.3182 93.5687 22.1326 94.0384 21.7614C94.508 21.3902 94.7429 20.9015 94.7429 20.2955C94.7429 19.8447 94.6027 19.464 94.3224 19.1534C94.0421 18.8428 93.6217 18.6174 93.0611 18.4773L91.6974 18.1364C91.027 17.9697 90.5175 17.697 90.169 17.3182C89.8243 16.9394 89.652 16.4773 89.652 15.9318C89.652 15.4735 89.7656 15.0739 89.9929 14.733C90.224 14.3883 90.5421 14.1193 90.9474 13.9261C91.3565 13.733 91.8262 13.6364 92.3565 13.6364C93.0308 13.6364 93.5933 13.803 94.044 14.1364C94.4948 14.4659 94.8262 14.9583 95.0384 15.6136ZM97.7472 22.5V13.7727H98.1108V22.5H97.7472ZM97.929 12.1818C97.8305 12.1818 97.7453 12.1458 97.6733 12.0739C97.6013 12.0019 97.5653 11.9167 97.5653 11.8182C97.5653 11.7197 97.6013 11.6345 97.6733 11.5625C97.7453 11.4905 97.8305 11.4545 97.929 11.4545C98.0275 11.4545 98.1127 11.4905 98.1847 11.5625C98.2566 11.6345 98.2926 11.7197 98.2926 11.8182C98.2926 11.9167 98.2566 12.0019 98.1847 12.0739C98.1127 12.1458 98.0275 12.1818 97.929 12.1818ZM103.43 22.6818C102.953 22.6818 102.512 22.5833 102.107 22.3864C101.705 22.1894 101.381 21.9015 101.135 21.5227C100.893 21.1439 100.771 20.6818 100.771 20.1364C100.771 19.8409 100.819 19.5644 100.913 19.3068C101.008 19.0455 101.175 18.8087 101.413 18.5966C101.652 18.3845 101.985 18.2027 102.413 18.0511C102.845 17.8996 103.396 17.7841 104.067 17.7045C104.468 17.6591 104.847 17.6061 105.203 17.5455C105.559 17.4848 105.849 17.3939 106.072 17.2727C106.296 17.1515 106.408 16.9773 106.408 16.75V16.2273C106.408 15.5568 106.182 15.0189 105.732 14.6136C105.281 14.2045 104.68 14 103.93 14C103.317 14 102.781 14.1364 102.322 14.4091C101.864 14.678 101.544 15.0568 101.362 15.5455L101.021 15.4091C101.158 15.0455 101.368 14.7311 101.652 14.4659C101.936 14.2008 102.273 13.9962 102.663 13.8523C103.054 13.7083 103.476 13.6364 103.93 13.6364C104.374 13.6364 104.769 13.7027 105.118 13.8352C105.47 13.964 105.769 14.1458 106.016 14.3807C106.262 14.6117 106.449 14.8845 106.578 15.1989C106.707 15.5133 106.771 15.8561 106.771 16.2273V22.5H106.408V20.7273H106.362C106.18 21.1212 105.944 21.4659 105.652 21.7614C105.364 22.053 105.031 22.2803 104.652 22.4432C104.277 22.6023 103.87 22.6818 103.43 22.6818ZM103.43 22.3182C103.983 22.3182 104.485 22.1705 104.936 21.875C105.387 21.5758 105.745 21.161 106.01 20.6307C106.275 20.0966 106.408 19.4773 106.408 18.7727V17.4545C106.302 17.5341 106.173 17.6042 106.021 17.6648C105.874 17.7254 105.705 17.7803 105.516 17.8295C105.33 17.875 105.127 17.9148 104.908 17.9489C104.688 17.983 104.453 18.0152 104.203 18.0455C103.423 18.1364 102.809 18.2746 102.362 18.4602C101.915 18.6458 101.599 18.8788 101.413 19.1591C101.228 19.4394 101.135 19.7652 101.135 20.1364C101.135 20.7955 101.355 21.3239 101.794 21.7216C102.237 22.1193 102.783 22.3182 103.43 22.3182ZM110.268 16.6364V22.5H109.905V13.7727H110.268V15.1591H110.314C110.518 14.7045 110.854 14.3409 111.32 14.0682C111.789 13.7955 112.325 13.6591 112.928 13.6591C113.511 13.6591 114.026 13.786 114.473 14.0398C114.92 14.2936 115.27 14.6439 115.524 15.0909C115.778 15.5379 115.905 16.053 115.905 16.6364V22.5H115.541V16.6364C115.541 15.8636 115.299 15.2348 114.814 14.75C114.329 14.2652 113.7 14.0227 112.928 14.0227C112.412 14.0227 111.954 14.1345 111.553 14.358C111.155 14.5814 110.84 14.8902 110.609 15.2841C110.382 15.678 110.268 16.1288 110.268 16.6364ZM122.089 22.6818C121.404 22.6818 120.788 22.4848 120.243 22.0909C119.697 21.6932 119.266 21.1534 118.947 20.4716C118.633 19.786 118.476 19.0152 118.476 18.1591C118.476 17.2992 118.633 16.5284 118.947 15.8466C119.266 15.1648 119.697 14.6269 120.243 14.233C120.788 13.8352 121.404 13.6364 122.089 13.6364C122.775 13.6364 123.389 13.8352 123.93 14.233C124.476 14.6307 124.908 15.1705 125.226 15.8523C125.544 16.5341 125.703 17.303 125.703 18.1591C125.703 19.0152 125.544 19.786 125.226 20.4716C124.911 21.1534 124.482 21.6932 123.936 22.0909C123.391 22.4848 122.775 22.6818 122.089 22.6818ZM122.089 22.3182C122.707 22.3182 123.26 22.1364 123.749 21.7727C124.241 21.4091 124.629 20.9129 124.913 20.2841C125.197 19.6553 125.339 18.947 125.339 18.1591C125.339 17.3712 125.196 16.6648 124.908 16.0398C124.624 15.411 124.237 14.9148 123.749 14.5511C123.26 14.1837 122.707 14 122.089 14C121.476 14 120.923 14.1837 120.43 14.5511C119.942 14.9148 119.554 15.411 119.266 16.0398C118.982 16.6648 118.839 17.3712 118.839 18.1591C118.839 18.947 118.982 19.6553 119.266 20.2841C119.55 20.9129 119.936 21.4091 120.425 21.7727C120.917 22.1364 121.472 22.3182 122.089 22.3182ZM133.037 22.5V10.8636H133.401V16.5H140.81V10.8636H141.173V22.5H140.81V16.8636H133.401V22.5H133.037ZM146.712 22.6818C146.234 22.6818 145.793 22.5833 145.388 22.3864C144.986 22.1894 144.662 21.9015 144.416 21.5227C144.174 21.1439 144.053 20.6818 144.053 20.1364C144.053 19.8409 144.1 19.5644 144.195 19.3068C144.289 19.0455 144.456 18.8087 144.695 18.5966C144.933 18.3845 145.267 18.2027 145.695 18.0511C146.126 17.8996 146.678 17.7841 147.348 17.7045C147.75 17.6591 148.128 17.6061 148.484 17.5455C148.84 17.4848 149.13 17.3939 149.354 17.2727C149.577 17.1515 149.689 16.9773 149.689 16.75V16.2273C149.689 15.5568 149.464 15.0189 149.013 14.6136C148.562 14.2045 147.962 14 147.212 14C146.598 14 146.062 14.1364 145.604 14.4091C145.145 14.678 144.825 15.0568 144.643 15.5455L144.303 15.4091C144.439 15.0455 144.649 14.7311 144.933 14.4659C145.217 14.2008 145.554 13.9962 145.945 13.8523C146.335 13.7083 146.757 13.6364 147.212 13.6364C147.655 13.6364 148.051 13.7027 148.399 13.8352C148.751 13.964 149.051 14.1458 149.297 14.3807C149.543 14.6117 149.731 14.8845 149.859 15.1989C149.988 15.5133 150.053 15.8561 150.053 16.2273V22.5H149.689V20.7273H149.643C149.462 21.1212 149.225 21.4659 148.933 21.7614C148.645 22.053 148.312 22.2803 147.933 22.4432C147.558 22.6023 147.151 22.6818 146.712 22.6818ZM146.712 22.3182C147.265 22.3182 147.767 22.1705 148.217 21.875C148.668 21.5758 149.026 21.161 149.291 20.6307C149.556 20.0966 149.689 19.4773 149.689 18.7727V17.4545C149.583 17.5341 149.454 17.6042 149.303 17.6648C149.155 17.7254 148.986 17.7803 148.797 17.8295C148.611 17.875 148.409 17.9148 148.189 17.9489C147.969 17.983 147.734 18.0152 147.484 18.0455C146.704 18.1364 146.09 18.2746 145.643 18.4602C145.196 18.6458 144.88 18.8788 144.695 19.1591C144.509 19.4394 144.416 19.7652 144.416 20.1364C144.416 20.7955 144.636 21.3239 145.075 21.7216C145.518 22.1193 146.064 22.3182 146.712 22.3182ZM153.232 22.5V13.7727H153.595V22.5H153.232ZM153.413 12.1818C153.315 12.1818 153.23 12.1458 153.158 12.0739C153.086 12.0019 153.05 11.9167 153.05 11.8182C153.05 11.7197 153.086 11.6345 153.158 11.5625C153.23 11.4905 153.315 11.4545 153.413 11.4545C153.512 11.4545 153.597 11.4905 153.669 11.5625C153.741 11.6345 153.777 11.7197 153.777 11.8182C153.777 11.9167 153.741 12.0019 153.669 12.0739C153.597 12.1458 153.512 12.1818 153.413 12.1818ZM156.733 22.5V13.7727H157.097V15.1591H157.142C157.347 14.7045 157.682 14.3409 158.148 14.0682C158.617 13.7955 159.153 13.6591 159.756 13.6591C159.801 13.6591 159.831 13.6591 159.847 13.6591C159.862 13.6591 159.892 13.6591 159.938 13.6591V14.0227C159.892 14.0227 159.862 14.0227 159.847 14.0227C159.831 14.0227 159.801 14.0227 159.756 14.0227C159.241 14.0227 158.782 14.1345 158.381 14.358C157.983 14.5814 157.669 14.8902 157.438 15.2841C157.21 15.678 157.097 16.1288 157.097 16.6364V22.5H156.733ZM164.807 22.6818C164.102 22.6818 163.473 22.4848 162.92 22.0909C162.371 21.6932 161.938 21.1534 161.619 20.4716C161.305 19.7898 161.148 19.0189 161.148 18.1591C161.148 17.3068 161.305 16.5398 161.619 15.858C161.934 15.1723 162.366 14.6307 162.915 14.233C163.468 13.8352 164.098 13.6364 164.807 13.6364C165.33 13.6364 165.809 13.75 166.244 13.9773C166.684 14.2008 167.051 14.5152 167.347 14.9205C167.642 15.322 167.833 15.7879 167.92 16.3182H167.534C167.417 15.6326 167.104 15.0758 166.597 14.6477C166.093 14.2159 165.496 14 164.807 14C164.182 14 163.619 14.1818 163.119 14.5455C162.623 14.9053 162.231 15.3996 161.943 16.0284C161.655 16.6534 161.511 17.3636 161.511 18.1591C161.511 18.9318 161.65 19.6326 161.926 20.2614C162.206 20.8902 162.595 21.3902 163.091 21.7614C163.587 22.1326 164.159 22.3182 164.807 22.3182C165.273 22.3182 165.701 22.2216 166.091 22.0284C166.481 21.8314 166.805 21.5549 167.062 21.1989C167.324 20.8428 167.489 20.428 167.557 19.9545H167.943C167.86 20.5038 167.67 20.983 167.375 21.392C167.08 21.8011 166.71 22.1193 166.267 22.3466C165.824 22.5701 165.337 22.6818 164.807 22.6818ZM176.151 19.6364V13.7727H176.514V22.5H176.151V21.1136H176.105C175.901 21.5682 175.563 21.9318 175.094 22.2045C174.628 22.4773 174.094 22.6136 173.491 22.6136C172.908 22.6136 172.393 22.4867 171.946 22.233C171.499 21.9792 171.149 21.6288 170.895 21.1818C170.641 20.7348 170.514 20.2197 170.514 19.6364V13.7727H170.878V19.6364C170.878 20.4091 171.12 21.0379 171.605 21.5227C172.09 22.0076 172.719 22.25 173.491 22.25C174.007 22.25 174.463 22.1383 174.861 21.9148C175.262 21.6913 175.577 21.3826 175.804 20.9886C176.035 20.5947 176.151 20.1439 176.151 19.6364ZM182.335 13.7727V14.1364H178.881V13.7727H182.335ZM180.153 11.6818H180.517V20.6591C180.517 21 180.593 21.2936 180.744 21.5398C180.896 21.7822 181.097 21.9697 181.347 22.1023C181.597 22.2311 181.866 22.2955 182.153 22.2955C182.263 22.2955 182.364 22.286 182.455 22.267C182.549 22.2481 182.646 22.2197 182.744 22.1818L182.858 22.5227C182.744 22.5644 182.633 22.5966 182.523 22.6193C182.413 22.6458 182.29 22.6591 182.153 22.6591C181.797 22.6591 181.466 22.5777 181.159 22.4148C180.856 22.2519 180.612 22.0208 180.426 21.7216C180.244 21.4223 180.153 21.0682 180.153 20.6591V11.6818ZM190.241 15.6136L189.878 15.7045C189.76 15.3258 189.596 15.0114 189.384 14.7614C189.175 14.5076 188.92 14.3182 188.616 14.1932C188.313 14.0644 187.961 14 187.56 14C186.863 14 186.298 14.178 185.866 14.5341C185.435 14.8864 185.219 15.3523 185.219 15.9318C185.219 16.3902 185.365 16.7746 185.656 17.0852C185.952 17.3958 186.397 17.625 186.991 17.7727L188.355 18.1136C188.995 18.2727 189.48 18.5417 189.81 18.9205C190.143 19.2992 190.31 19.7576 190.31 20.2955C190.31 20.7689 190.185 21.1856 189.935 21.5455C189.688 21.9053 189.348 22.1856 188.912 22.3864C188.476 22.5833 187.973 22.6818 187.401 22.6818C186.624 22.6818 185.99 22.4924 185.497 22.1136C185.005 21.7348 184.685 21.197 184.537 20.5L184.901 20.4091C185.029 21.0265 185.304 21.5 185.724 21.8295C186.149 22.1553 186.707 22.3182 187.401 22.3182C188.158 22.3182 188.772 22.1326 189.241 21.7614C189.711 21.3902 189.946 20.9015 189.946 20.2955C189.946 19.8447 189.806 19.464 189.526 19.1534C189.245 18.8428 188.825 18.6174 188.264 18.4773L186.901 18.1364C186.23 17.9697 185.721 17.697 185.372 17.3182C185.027 16.9394 184.855 16.4773 184.855 15.9318C184.855 15.4735 184.969 15.0739 185.196 14.733C185.427 14.3883 185.745 14.1193 186.151 13.9261C186.56 13.733 187.029 13.6364 187.56 13.6364C188.234 13.6364 188.796 13.803 189.247 14.1364C189.698 14.4659 190.029 14.9583 190.241 15.6136Z" fill="#727272"/>
</svg>
