<svg width="1024" height="1024" viewBox="0 0 1024 1024" fill="none" xmlns="http://www.w3.org/2000/svg">
<g clip-path="url(#clip0_519_2714)">
<path d="M650.287 242.365L548.543 410.553L548.542 410.555L512.155 470.633L475.795 410.554L475.794 410.554L382.607 256.643L382.601 256.632L373.988 242.307L370.572 236.626L367.139 242.296L335.962 293.783L335.961 293.785L173.345 562.59L173.344 562.592L146.802 606.409L111.673 548.388L126.387 524.064L126.387 524.063L265.571 294.09L265.571 294.089L334.186 180.684L334.187 180.684L370.56 120.584L406.934 180.684L406.934 180.684L449.288 250.679L508.746 348.941L512.168 354.597L515.591 348.942L589.593 226.652L589.596 226.648L617.336 180.684L617.338 180.68L653.709 120.584L690.083 180.684L690.083 180.684L753.648 285.744L753.649 285.745L896.936 522.442L896.94 522.449L912.322 547.969L877.257 606.006L856.245 571.409L856.242 571.403L686.692 291.227L686.692 291.227L657.132 242.365L653.709 236.708L650.287 242.365Z" fill="black" stroke="white" stroke-width="8"/>
<path d="M236.713 131.712C236.713 142.931 239.358 153.293 243.934 161.582V161.653L246.293 165.584L391.569 405.684L420.881 454.133L577.596 713.17L581.17 719.172C600.545 749.042 633.79 769.121 671.753 770.193C672.897 770.265 674.041 770.265 675.185 770.265C737.027 770.265 787.144 720.172 787.144 658.361C787.144 596.549 737.027 546.457 675.185 546.457C630.93 546.457 592.609 572.111 574.45 609.412L450.837 404.755L421.525 356.306L302.845 160.224L258.018 86.1934C245.507 94.0538 236.713 111.49 236.713 131.712ZM620.85 685.801C616.703 677.512 614.344 668.222 614.344 658.289C614.344 624.633 641.654 597.335 675.328 597.335C709.002 597.335 736.312 624.633 736.312 658.289C736.312 691.946 709.002 719.243 675.328 719.243C654.809 719.243 636.65 709.096 625.64 693.59C623.852 691.16 622.279 688.516 620.85 685.801Z" fill="url(#paint0_linear_519_2714)"/>
</g>
<path d="M249.715 163.513L247.891 160.473L247.436 159.649C243.217 152.007 240.713 142.321 240.713 131.712C240.713 114.45 247.464 99.8213 256.848 91.9844L299.423 162.295L299.423 162.296L418.102 358.377L418.103 358.377L447.413 406.823L447.415 406.826L571.026 611.48L574.828 617.774L578.046 611.163C595.56 575.189 632.513 550.457 675.185 550.457C734.82 550.457 783.144 598.76 783.144 658.361C783.144 717.961 734.82 766.265 675.185 766.265C674.02 766.265 673.001 766.263 672.002 766.201L671.934 766.197L671.866 766.195C635.301 765.162 603.264 745.838 584.568 717.059L581.032 711.123L581.025 711.111L581.018 711.099L424.304 452.062L420.881 454.133L424.304 452.062L394.991 403.613L391.569 405.684L394.991 403.613L249.723 163.525L249.715 163.513ZM617.272 687.59L617.291 687.628L617.31 687.665C618.796 690.487 620.466 693.304 622.398 695.934C634.129 712.437 653.473 723.243 675.328 723.243C711.209 723.243 740.312 694.157 740.312 658.289C740.312 622.422 711.209 593.335 675.328 593.335C639.447 593.335 610.344 622.422 610.344 658.289C610.344 668.868 612.859 678.768 617.272 687.59Z" fill="white" stroke="black" stroke-width="8"/>
<path d="M724.578 162.295L767.157 91.9746C776.579 99.8024 783.277 114.421 783.216 131.627V131.634V131.641C783.216 142.223 780.652 151.857 776.473 159.613L776.142 160.228L774.213 163.441L774.206 163.453L628.938 403.542L632.36 405.612L628.938 403.542L599.625 451.991L603.047 454.061L599.625 451.991L442.91 711.028L442.903 711.039L442.896 711.051L439.361 716.988C420.668 745.762 388.631 765.022 352.055 766.124L351.99 766.126L351.926 766.13C350.927 766.192 349.908 766.193 348.744 766.193C289.109 766.193 240.784 717.89 240.784 658.289C240.784 598.689 289.109 550.386 348.744 550.386C391.412 550.386 428.296 575.115 445.811 611.091L449.026 617.695L452.829 611.412L576.656 406.826L576.657 406.826L605.969 358.377L605.969 358.376L724.577 162.296L724.578 162.295ZM406.761 687.665L406.781 687.628L406.799 687.59C411.214 678.766 413.728 668.794 413.728 658.289C413.728 622.422 384.624 593.335 348.744 593.335C312.863 593.335 283.759 622.422 283.759 658.289C283.759 694.157 312.863 723.243 348.744 723.243C370.609 723.243 389.876 712.428 401.672 695.936C403.604 693.306 405.275 690.488 406.761 687.665Z" fill="url(#paint1_linear_519_2714)" stroke="#E8E8E8" stroke-width="8"/>
<path d="M167.615 900C166.982 900 166.443 899.81 166 899.43C165.62 899.05 165.43 898.543 165.43 897.91V835.685C165.43 834.988 165.62 834.45 166 834.07C166.443 833.69 166.982 833.5 167.615 833.5H169.99C170.623 833.5 171.098 833.658 171.415 833.975C171.732 834.292 171.922 834.545 171.985 834.735L193.55 876.725L215.21 834.735C215.337 834.545 215.527 834.292 215.78 833.975C216.097 833.658 216.572 833.5 217.205 833.5H219.485C220.182 833.5 220.72 833.69 221.1 834.07C221.48 834.45 221.67 834.988 221.67 835.685V897.91C221.67 898.543 221.48 899.05 221.1 899.43C220.72 899.81 220.182 900 219.485 900H217.775C217.142 900 216.635 899.81 216.255 899.43C215.875 899.05 215.685 898.543 215.685 897.91V846.42L197.54 882.14C197.287 882.773 196.907 883.248 196.4 883.565C195.957 883.882 195.355 884.04 194.595 884.04H192.505C191.745 884.04 191.143 883.882 190.7 883.565C190.257 883.248 189.877 882.773 189.56 882.14L171.415 846.42V897.91C171.415 898.543 171.225 899.05 170.845 899.43C170.465 899.81 169.958 900 169.325 900H167.615ZM234.806 900C234.299 900 233.856 899.81 233.476 899.43C233.096 899.05 232.906 898.607 232.906 898.1C232.906 897.783 232.969 897.435 233.096 897.055L257.131 835.4C257.384 834.767 257.701 834.292 258.081 833.975C258.524 833.658 259.126 833.5 259.886 833.5H263.116C263.876 833.5 264.446 833.658 264.826 833.975C265.269 834.292 265.618 834.767 265.871 835.4L289.906 897.055C290.033 897.435 290.096 897.783 290.096 898.1C290.096 898.607 289.906 899.05 289.526 899.43C289.146 899.81 288.703 900 288.196 900H286.296C285.663 900 285.188 899.842 284.871 899.525C284.554 899.145 284.333 898.828 284.206 898.575L278.316 883.375H244.686L238.796 898.575C238.733 898.828 238.511 899.145 238.131 899.525C237.814 899.842 237.339 900 236.706 900H234.806ZM246.966 877.675H276.036L261.501 840.245L246.966 877.675ZM303.433 900C302.8 900 302.293 899.81 301.913 899.43C301.533 899.05 301.343 898.543 301.343 897.91V835.685C301.343 834.988 301.533 834.45 301.913 834.07C302.293 833.69 302.8 833.5 303.433 833.5H305.428C306.061 833.5 306.536 833.658 306.853 833.975C307.17 834.292 307.36 834.513 307.423 834.64L342.478 888.22V835.685C342.478 834.988 342.668 834.45 343.048 834.07C343.428 833.69 343.935 833.5 344.568 833.5H346.278C346.975 833.5 347.513 833.69 347.893 834.07C348.273 834.45 348.463 834.988 348.463 835.685V897.815C348.463 898.448 348.273 898.987 347.893 899.43C347.513 899.81 347.006 900 346.373 900H344.283C343.65 900 343.175 899.842 342.858 899.525C342.605 899.208 342.415 898.987 342.288 898.86L307.328 845.47V897.91C307.328 898.543 307.138 899.05 306.758 899.43C306.378 899.81 305.84 900 305.143 900H303.433ZM384.714 900.95C381.611 900.95 378.698 900.57 375.974 899.81C373.251 899.05 370.813 897.878 368.659 896.295C366.569 894.712 364.891 892.717 363.624 890.31C362.421 887.84 361.756 884.927 361.629 881.57C361.629 881 361.788 880.525 362.104 880.145C362.484 879.702 362.991 879.48 363.624 879.48H365.524C366.158 879.48 366.633 879.67 366.949 880.05C367.329 880.43 367.551 880.905 367.614 881.475C367.868 884.768 368.786 887.428 370.369 889.455C372.016 891.482 374.074 892.97 376.544 893.92C379.078 894.807 381.801 895.25 384.714 895.25C390.288 895.25 394.499 893.445 397.349 889.835C400.263 886.162 401.719 881.443 401.719 875.68V839.2H366.664C366.031 839.2 365.524 839.01 365.144 838.63C364.764 838.25 364.574 837.743 364.574 837.11V835.59C364.574 834.957 364.764 834.45 365.144 834.07C365.524 833.69 366.031 833.5 366.664 833.5H405.519C406.216 833.5 406.754 833.69 407.134 834.07C407.514 834.45 407.704 834.988 407.704 835.685V875.775C407.704 880.715 406.818 885.085 405.044 888.885C403.271 892.685 400.674 895.662 397.254 897.815C393.898 899.905 389.718 900.95 384.714 900.95ZM419.147 900C418.64 900 418.197 899.81 417.817 899.43C417.437 899.05 417.247 898.607 417.247 898.1C417.247 897.783 417.31 897.435 417.437 897.055L441.472 835.4C441.725 834.767 442.042 834.292 442.422 833.975C442.865 833.658 443.467 833.5 444.227 833.5H447.457C448.217 833.5 448.787 833.658 449.167 833.975C449.61 834.292 449.958 834.767 450.212 835.4L474.247 897.055C474.373 897.435 474.437 897.783 474.437 898.1C474.437 898.607 474.247 899.05 473.867 899.43C473.487 899.81 473.043 900 472.537 900H470.637C470.003 900 469.528 899.842 469.212 899.525C468.895 899.145 468.673 898.828 468.547 898.575L462.657 883.375H429.027L423.137 898.575C423.073 898.828 422.852 899.145 422.472 899.525C422.155 899.842 421.68 900 421.047 900H419.147ZM431.307 877.675H460.377L445.842 840.245L431.307 877.675ZM507.086 900.95C501.322 900.95 496.604 899.842 492.931 897.625C489.321 895.345 486.629 892.273 484.856 888.41C483.082 884.547 482.101 880.145 481.911 875.205C481.847 872.608 481.816 869.822 481.816 866.845C481.816 863.868 481.847 861.018 481.911 858.295C482.101 853.355 483.082 848.953 484.856 845.09C486.629 841.163 489.321 838.092 492.931 835.875C496.604 833.658 501.322 832.55 507.086 832.55C511.582 832.55 515.414 833.183 518.581 834.45C521.747 835.717 524.312 837.395 526.276 839.485C528.302 841.512 529.791 843.728 530.741 846.135C531.754 848.478 532.324 850.79 532.451 853.07C532.514 853.64 532.324 854.115 531.881 854.495C531.501 854.812 531.026 854.97 530.456 854.97H528.556C528.049 854.97 527.606 854.843 527.226 854.59C526.846 854.273 526.592 853.735 526.466 852.975C525.262 847.338 522.982 843.475 519.626 841.385C516.332 839.295 512.152 838.25 507.086 838.25C501.322 838.25 496.731 839.897 493.311 843.19C489.954 846.42 488.149 851.613 487.896 858.77C487.706 863.963 487.706 869.283 487.896 874.73C488.149 881.887 489.954 887.112 493.311 890.405C496.731 893.635 501.322 895.25 507.086 895.25C512.152 895.25 516.332 894.205 519.626 892.115C522.982 890.025 525.262 886.162 526.466 880.525C526.592 879.765 526.846 879.258 527.226 879.005C527.606 878.688 528.049 878.53 528.556 878.53H530.456C531.026 878.53 531.501 878.72 531.881 879.1C532.324 879.417 532.514 879.86 532.451 880.43C532.324 882.71 531.754 885.053 530.741 887.46C529.791 889.803 528.302 892.02 526.276 894.11C524.312 896.137 521.747 897.783 518.581 899.05C515.414 900.317 511.582 900.95 507.086 900.95ZM541.144 900C540.637 900 540.194 899.81 539.814 899.43C539.434 899.05 539.244 898.607 539.244 898.1C539.244 897.783 539.307 897.435 539.434 897.055L563.469 835.4C563.722 834.767 564.039 834.292 564.419 833.975C564.862 833.658 565.464 833.5 566.224 833.5H569.454C570.214 833.5 570.784 833.658 571.164 833.975C571.607 834.292 571.956 834.767 572.209 835.4L596.244 897.055C596.371 897.435 596.434 897.783 596.434 898.1C596.434 898.607 596.244 899.05 595.864 899.43C595.484 899.81 595.041 900 594.534 900H592.634C592.001 900 591.526 899.842 591.209 899.525C590.892 899.145 590.671 898.828 590.544 898.575L584.654 883.375H551.024L545.134 898.575C545.071 898.828 544.849 899.145 544.469 899.525C544.152 899.842 543.677 900 543.044 900H541.144ZM553.304 877.675H582.374L567.839 840.245L553.304 877.675ZM604.831 900C604.198 900 603.691 899.81 603.311 899.43C602.931 898.987 602.741 898.448 602.741 897.815V895.915C602.741 894.965 602.931 894.205 603.311 893.635C603.691 893.002 603.976 892.558 604.166 892.305L641.596 839.2H605.686C605.053 839.2 604.546 839.01 604.166 838.63C603.786 838.25 603.596 837.743 603.596 837.11V835.685C603.596 834.988 603.786 834.45 604.166 834.07C604.546 833.69 605.053 833.5 605.686 833.5H646.631C647.328 833.5 647.866 833.69 648.246 834.07C648.626 834.45 648.816 834.988 648.816 835.685V837.585C648.816 838.408 648.689 839.073 648.436 839.58C648.183 840.087 647.898 840.562 647.581 841.005L610.341 894.3H647.581C648.278 894.3 648.816 894.49 649.196 894.87C649.576 895.25 649.766 895.788 649.766 896.485V897.91C649.766 898.543 649.576 899.05 649.196 899.43C648.816 899.81 648.278 900 647.581 900H604.831ZM664.786 900C664.152 900 663.646 899.81 663.266 899.43C662.886 899.05 662.696 898.543 662.696 897.91V835.59C662.696 834.957 662.886 834.45 663.266 834.07C663.646 833.69 664.152 833.5 664.786 833.5H666.591C667.224 833.5 667.731 833.69 668.111 834.07C668.491 834.45 668.681 834.957 668.681 835.59V897.91C668.681 898.543 668.491 899.05 668.111 899.43C667.731 899.81 667.224 900 666.591 900H664.786ZM681.788 900C681.282 900 680.838 899.81 680.458 899.43C680.078 899.05 679.888 898.607 679.888 898.1C679.888 897.783 679.952 897.435 680.078 897.055L704.113 835.4C704.367 834.767 704.683 834.292 705.063 833.975C705.507 833.658 706.108 833.5 706.868 833.5H710.098C710.858 833.5 711.428 833.658 711.808 833.975C712.252 834.292 712.6 834.767 712.853 835.4L736.888 897.055C737.015 897.435 737.078 897.783 737.078 898.1C737.078 898.607 736.888 899.05 736.508 899.43C736.128 899.81 735.685 900 735.178 900H733.278C732.645 900 732.17 899.842 731.853 899.525C731.537 899.145 731.315 898.828 731.188 898.575L725.298 883.375H691.668L685.778 898.575C685.715 898.828 685.493 899.145 685.113 899.525C684.797 899.842 684.322 900 683.688 900H681.788ZM693.948 877.675H723.018L708.483 840.245L693.948 877.675ZM750.416 900C749.782 900 749.276 899.81 748.896 899.43C748.516 899.05 748.326 898.543 748.326 897.91V835.685C748.326 834.988 748.516 834.45 748.896 834.07C749.276 833.69 749.782 833.5 750.416 833.5H752.411C753.044 833.5 753.519 833.658 753.836 833.975C754.152 834.292 754.342 834.513 754.406 834.64L789.461 888.22V835.685C789.461 834.988 789.651 834.45 790.031 834.07C790.411 833.69 790.917 833.5 791.551 833.5H793.261C793.957 833.5 794.496 833.69 794.876 834.07C795.256 834.45 795.446 834.988 795.446 835.685V897.815C795.446 898.448 795.256 898.987 794.876 899.43C794.496 899.81 793.989 900 793.356 900H791.266C790.632 900 790.157 899.842 789.841 899.525C789.587 899.208 789.397 898.987 789.271 898.86L754.311 845.47V897.91C754.311 898.543 754.121 899.05 753.741 899.43C753.361 899.81 752.822 900 752.126 900H750.416ZM835.782 900.95C830.525 900.95 826.06 900.032 822.387 898.195C818.714 896.295 815.895 893.413 813.932 889.55C811.969 885.623 810.892 880.683 810.702 874.73C810.639 871.88 810.607 869.22 810.607 866.75C810.607 864.28 810.639 861.62 810.702 858.77C810.892 852.88 812.032 848.003 814.122 844.14C816.212 840.213 819.094 837.3 822.767 835.4C826.504 833.5 830.842 832.55 835.782 832.55C840.722 832.55 845.029 833.5 848.702 835.4C852.439 837.3 855.352 840.213 857.442 844.14C859.595 848.003 860.735 852.88 860.862 858.77C860.989 861.62 861.052 864.28 861.052 866.75C861.052 869.22 860.989 871.88 860.862 874.73C860.735 880.683 859.659 885.623 857.632 889.55C855.669 893.413 852.85 896.295 849.177 898.195C845.504 900.032 841.039 900.95 835.782 900.95ZM835.782 895.25C841.229 895.25 845.694 893.603 849.177 890.31C852.724 887.017 854.624 881.665 854.877 874.255C855.004 871.405 855.067 868.903 855.067 866.75C855.067 864.597 855.004 862.095 854.877 859.245C854.75 854.305 853.832 850.283 852.122 847.18C850.475 844.077 848.227 841.828 845.377 840.435C842.59 838.978 839.392 838.25 835.782 838.25C832.235 838.25 829.037 838.978 826.187 840.435C823.4 841.828 821.152 844.077 819.442 847.18C817.795 850.283 816.877 854.305 816.687 859.245C816.624 862.095 816.592 864.597 816.592 866.75C816.592 868.903 816.624 871.405 816.687 874.255C816.94 881.665 818.84 887.017 822.387 890.31C825.934 893.603 830.399 895.25 835.782 895.25Z" fill="#727272"/>
<defs>
<linearGradient id="paint0_linear_519_2714" x1="511.929" y1="86.1934" x2="511.929" y2="770.265" gradientUnits="userSpaceOnUse">
<stop stop-color="#D07D00"/>
<stop offset="0.468555" stop-color="#FFCE70"/>
<stop offset="1" stop-color="#C07F00"/>
</linearGradient>
<linearGradient id="paint1_linear_519_2714" x1="512" y1="86.1934" x2="512" y2="770.193" gradientUnits="userSpaceOnUse">
<stop/>
<stop offset="0.468555"/>
<stop offset="1"/>
</linearGradient>
<clipPath id="clip0_519_2714">
<rect width="860" height="684" fill="white" transform="translate(82 86.1934)"/>
</clipPath>
</defs>
</svg>
