<svg width="166" height="147" viewBox="0 0 166 147" fill="none" xmlns="http://www.w3.org/2000/svg">
<rect width="107.103" height="107.103" transform="matrix(0.771783 0.635886 -0.771783 0.635886 83.0674 4)" fill="#3A3A3A"/>
<mask id="path-2-outside-1_487_2990" maskUnits="userSpaceOnUse" x="15.6937" y="-0.855084" width="134.685" height="148.889" fill="black">
<rect fill="white" x="15.6937" y="-0.855084" width="134.685" height="148.889"/>
<path fill-rule="evenodd" clip-rule="evenodd" d="M103.879 34.4064L88.8413 57.6417L140.637 116.663C147.08 124.005 145.355 133.912 136.875 138.267L82.3559 67.6624L34.4702 141.652C25.6106 137.846 22.9687 128.076 28.7097 120.349L74.9644 58.0902L57.757 35.806C50.5525 37.2754 42.3588 34.5994 37.8262 28.813C32.3093 21.77 34.3053 12.7861 42.2845 8.74685C50.2636 4.70761 61.2043 7.14261 66.7213 14.1856C71.2395 19.9536 70.7186 27.0234 65.999 31.6128L81.5069 49.2841L95.1589 30.9086C89.8087 26.6532 88.5256 19.5046 92.5594 13.3684C97.4048 5.99766 108.087 2.87875 116.418 6.4021C124.75 9.92546 127.576 18.7569 122.731 26.1276C118.817 32.0813 111.095 35.2609 103.879 34.4064ZM113.044 11.535C118.171 13.7033 119.91 19.138 116.928 23.6739C113.947 28.2098 107.373 30.1292 102.246 27.9609C97.1188 25.7927 95.3797 20.3579 98.3615 15.822C101.343 11.2862 107.917 9.3668 113.044 11.535ZM46.1264 13.6516C51.0367 11.1658 57.7696 12.6643 61.1646 16.9985C64.5597 21.3327 63.3313 26.8613 58.421 29.347C53.5107 31.8327 46.7779 30.3343 43.3829 26.0001C39.9878 21.6659 41.2161 16.1373 46.1264 13.6516Z"/>
</mask>
<path fill-rule="evenodd" clip-rule="evenodd" d="M103.879 34.4064L88.8413 57.6417L140.637 116.663C147.08 124.005 145.355 133.912 136.875 138.267L82.3559 67.6624L34.4702 141.652C25.6106 137.846 22.9687 128.076 28.7097 120.349L74.9644 58.0902L57.757 35.806C50.5525 37.2754 42.3588 34.5994 37.8262 28.813C32.3093 21.77 34.3053 12.7861 42.2845 8.74685C50.2636 4.70761 61.2043 7.14261 66.7213 14.1856C71.2395 19.9536 70.7186 27.0234 65.999 31.6128L81.5069 49.2841L95.1589 30.9086C89.8087 26.6532 88.5256 19.5046 92.5594 13.3684C97.4048 5.99766 108.087 2.87875 116.418 6.4021C124.75 9.92546 127.576 18.7569 122.731 26.1276C118.817 32.0813 111.095 35.2609 103.879 34.4064ZM113.044 11.535C118.171 13.7033 119.91 19.138 116.928 23.6739C113.947 28.2098 107.373 30.1292 102.246 27.9609C97.1188 25.7927 95.3797 20.3579 98.3615 15.822C101.343 11.2862 107.917 9.3668 113.044 11.535ZM46.1264 13.6516C51.0367 11.1658 57.7696 12.6643 61.1646 16.9985C64.5597 21.3327 63.3313 26.8613 58.421 29.347C53.5107 31.8327 46.7779 30.3343 43.3829 26.0001C39.9878 21.6659 41.2161 16.1373 46.1264 13.6516Z" fill="white"/>
<path d="M88.8413 57.6417L85.4706 55.4363L83.8375 57.9596L85.8487 60.2513L88.8413 57.6417ZM103.879 34.4064L104.292 30.4367L101.838 30.1461L100.508 32.2011L103.879 34.4064ZM140.637 116.663L137.644 119.272L137.644 119.272L140.637 116.663ZM136.875 138.267L133.72 140.678L135.783 143.35L138.747 141.828L136.875 138.267ZM82.3559 67.6624L85.5115 65.2506L82.0337 60.7467L78.9852 65.457L82.3559 67.6624ZM34.4702 141.652L32.9354 145.32L36.0326 146.651L37.8409 143.857L34.4702 141.652ZM28.7097 120.349L31.9364 122.762L31.9364 122.762L28.7097 120.349ZM74.9644 58.0902L78.1911 60.5032L79.9831 58.0911L78.1201 55.6784L74.9644 58.0902ZM57.757 35.806L60.9126 33.3943L59.3623 31.3866L56.9004 31.8887L57.757 35.806ZM37.8262 28.813L40.9644 26.3788L40.9644 26.3788L37.8262 28.813ZM66.7213 14.1856L69.8595 11.7514L69.8595 11.7514L66.7213 14.1856ZM65.999 31.6128L63.1853 28.7283L60.4872 31.3519L63.0064 34.2225L65.999 31.6128ZM81.5069 49.2841L78.5143 51.8938L81.8031 55.6414L84.7336 51.6971L81.5069 49.2841ZM95.1589 30.9086L98.3856 33.3216L100.683 30.2293L97.6234 27.7958L95.1589 30.9086ZM92.5594 13.3684L95.9149 15.5972L95.9149 15.5972L92.5594 13.3684ZM116.418 6.4021L114.905 10.0799L114.905 10.0799L116.418 6.4021ZM122.731 26.1276L126.086 28.3564L126.086 28.3564L122.731 26.1276ZM116.928 23.6739L113.573 21.4451L113.573 21.4451L116.928 23.6739ZM113.044 11.535L111.53 15.2129L111.53 15.2129L113.044 11.535ZM102.246 27.9609L103.76 24.2831L103.76 24.2831L102.246 27.9609ZM98.3615 15.822L101.717 18.0508L101.717 18.0508L98.3615 15.822ZM46.1264 13.6516L44.275 10.0802L44.275 10.0802L46.1264 13.6516ZM58.421 29.347L56.5696 25.7756L56.5696 25.7756L58.421 29.347ZM43.3829 26.0001L40.2447 28.4342L40.2447 28.4342L43.3829 26.0001ZM92.212 59.847L107.25 36.6118L100.508 32.2011L85.4706 55.4363L92.212 59.847ZM143.629 114.053L91.8339 55.032L85.8487 60.2513L137.644 119.272L143.629 114.053ZM138.747 141.828C144.007 139.127 147.384 134.562 148.295 129.327C149.206 124.098 147.594 118.571 143.629 114.053L137.644 119.272C140.123 122.097 140.87 125.194 140.408 127.843C139.948 130.486 138.223 133.053 135.004 134.706L138.747 141.828ZM79.2003 70.0741L133.72 140.678L140.031 135.855L85.5115 65.2506L79.2003 70.0741ZM37.8409 143.857L85.7266 69.8677L78.9852 65.457L31.0994 139.446L37.8409 143.857ZM25.4831 117.936C21.9505 122.69 20.8576 128.303 22.2519 133.459C23.6478 138.622 27.4394 142.959 32.9354 145.32L36.005 137.983C32.6414 136.538 30.6822 134.088 29.9776 131.482C29.2713 128.87 29.728 125.734 31.9364 122.762L25.4831 117.936ZM71.7378 55.6772L25.4831 117.936L31.9364 122.762L78.1911 60.5032L71.7378 55.6772ZM54.6014 38.2178L71.8088 60.502L78.1201 55.6784L60.9126 33.3943L54.6014 38.2178ZM34.688 31.2471C40.2645 38.3662 50.0688 41.4661 58.6136 39.7234L56.9004 31.8887C51.0363 33.0847 44.4532 30.8326 40.9644 26.3788L34.688 31.2471ZM40.433 5.17548C35.4868 7.67938 32.1701 11.8548 31.0864 16.7322C30.0014 21.6159 31.2371 26.8417 34.688 31.2472L40.9644 26.3788C38.8984 23.7413 38.3737 20.9536 38.9022 18.5748C39.4321 16.1897 41.103 13.8536 44.1359 12.3182L40.433 5.17548ZM69.8595 11.7514C63.1283 3.15833 50.0837 0.290075 40.433 5.17548L44.1359 12.3182C50.4435 9.12515 59.2804 11.1269 63.5831 16.6198L69.8595 11.7514ZM68.8128 34.4974C75.035 28.4468 75.5984 19.0778 69.8595 11.7514L63.5831 16.6198C66.8806 20.8294 66.4023 25.6001 63.1853 28.7283L68.8128 34.4974ZM84.4995 46.6744L68.9917 29.0031L63.0064 34.2225L78.5143 51.8938L84.4995 46.6744ZM91.9323 28.4957L78.2803 46.8711L84.7336 51.6971L98.3856 33.3216L91.9323 28.4957ZM89.204 11.1396C84.0756 18.9409 85.6557 28.4231 92.6945 34.0215L97.6234 27.7958C93.9617 24.8834 92.9756 20.0684 95.9149 15.5972L89.204 11.1396ZM117.932 2.72429C107.855 -1.53715 95.1158 2.14662 89.204 11.1396L95.9149 15.5972C99.6938 9.84869 108.318 7.29465 114.905 10.0799L117.932 2.72429ZM126.086 28.3564C129.117 23.7459 129.863 18.4574 128.326 13.6566C126.792 8.86205 123.097 4.9084 117.932 2.72429L114.905 10.0799C118.071 11.4192 119.955 13.6429 120.705 15.9875C121.453 18.3259 121.19 21.1385 119.375 23.8988L126.086 28.3564ZM103.466 38.3762C112.015 39.3885 121.268 35.6849 126.086 28.3564L119.375 23.8988C116.365 28.4778 110.175 31.1333 104.292 30.4367L103.466 38.3762ZM120.284 25.9027C122.383 22.7097 122.935 18.9791 121.838 15.5512C120.743 12.1295 118.12 9.36379 114.558 7.85724L111.53 15.2129C113.095 15.8745 113.905 16.9103 114.216 17.8821C114.525 18.8476 114.456 20.1023 113.573 21.4451L120.284 25.9027ZM100.732 31.6387C107.605 34.5451 116.236 32.0608 120.284 25.9027L113.573 21.4451C111.658 24.3588 107.141 25.7133 103.76 24.2831L100.732 31.6387ZM95.006 13.5933C92.907 16.7863 92.3552 20.5169 93.4522 23.9448C94.5471 27.3665 97.1698 30.1322 100.732 31.6387L103.76 24.2831C102.195 23.6214 101.385 22.5856 101.074 21.6139C100.765 20.6484 100.834 19.3937 101.717 18.0508L95.006 13.5933ZM114.558 7.85724C107.685 4.9509 99.0542 7.43512 95.006 13.5933L101.717 18.0508C103.632 15.1372 108.148 13.7827 111.53 15.2129L114.558 7.85724ZM64.3028 14.5643C59.6935 8.68003 50.8568 6.7483 44.275 10.0802L47.9778 17.2229C51.2166 15.5834 55.8456 16.6486 58.0264 19.4327L64.3028 14.5643ZM60.2725 32.9184C63.6843 31.1913 66.0419 28.268 66.8152 24.7873C67.59 21.3002 66.6928 17.6154 64.3028 14.5643L58.0264 19.4327C59.0315 20.7158 59.2177 21.9624 58.9994 22.9446C58.7798 23.9331 58.0681 25.0171 56.5696 25.7756L60.2725 32.9184ZM40.2447 28.4342C44.854 34.3185 53.6907 36.2503 60.2725 32.9184L56.5696 25.7756C53.3308 27.4152 48.7019 26.35 46.5211 23.5659L40.2447 28.4342ZM44.275 10.0802C40.8632 11.8073 38.5056 14.7306 37.7322 18.2113C36.9575 21.6984 37.8547 25.3832 40.2447 28.4342L46.5211 23.5659C45.5159 22.2828 45.3298 21.0361 45.548 20.054C45.7677 19.0654 46.4794 17.9815 47.9779 17.2229L44.275 10.0802Z" fill="#3A3A3A" mask="url(#path-2-outside-1_487_2990)"/>
</svg>
